<svg xmlns="http://www.w3.org/2000/svg" width="40" height="40" viewBox="0 0 40 40">
    <g fill="none" fill-rule="evenodd">
        <g fill="#00B2A9">
            <g>
                <g>
                    <g>
                        <path d="M17.397 5.569c2.885-2.752 6.192-1.546 8.772 1.02 1.583 1.569 2.516 3.546 3.273 5.611.902 2.45 1.766 4.915 2.643 7.375.93 2.605 1.833 5.217 2.62 7.87.729 2.487 1.2 5.079 2.137 7.504.01.032.019.064.026.096.354-.021.705-.084 1.045-.186 1.628-.524 1.473-2.715 1.259-4.101-.344-2.209-.854-4.403-1.29-6.595-.226-1.138-.448-2.287-.68-3.414-.21-1.059-.363-2.414-1.188-3.208-1.115-1.076-3.16-1.186-4.622-1.358-.409-.045-.367-1.169 0-1.127 1.8.212 4.273.395 5.332 2.085.622.989.8 2.183 1.022 3.31.335 1.664.666 3.327.995 4.991.487 2.451 1.4 5.17 1.09 7.704-.107.84-.35 1.851-1.006 2.446-.74.673-1.864.523-2.788.546-6.065.14-12.133.313-18.2.408-3.088.048-6.24.172-9.322-.078-2.002-.161-4.073-.922-4.594-3.068-.282-1.166-.16-2.499-.197-3.662-.037-1.163-.076-2.324 0-3.484.135-1.998.465-4.102 1.487-5.837.324-.544.583.487.4.797-1.149 1.932-1.386 4.372-1.386 6.58 0 1.17.057 2.344.09 3.516.048 1.642.42 2.946 2.068 3.589.792.29 1.623.466 2.465.52 1.073-5.832 2.458-11.602 4.15-17.287.7-2.417 1.433-4.822 2.109-7.247.47-1.688.983-4.068 2.29-5.316zm-5.236 17.837c-1.061 3.98-1.968 7.999-2.719 12.053.98.045 1.992.009 2.947-.011-.499-1.45.166-3.141.51-4.55.593-2.456 1.186-4.905 1.777-7.346-.825-.062-1.67-.113-2.515-.146zM22.924 8.318c-2.597-1.52-4.13 2.121-4.747 3.944-.8 2.358-1.307 4.814-1.892 7.231l-.344 1.408c.016.185-.027.37-.124.527-.447 1.837-.893 3.675-1.338 5.516-.299 1.242-.606 2.501-.902 3.726-.295 1.226-1.242 3.358-.532 4.533.037.072.057.152.06.234h.303c2.395.008 4.79-.034 7.184-.08 4.33-.097 8.66-.196 12.988-.298-1.24-4.453-2.774-8.89-4.27-13.259-.825-2.408-1.716-4.797-2.735-7.13-.482-1.107-.992-2.197-1.538-3.273-.516-1.014-1.07-2.47-2.113-3.079zm9.848 15.18c-.038.05-.096.08-.158.082h-2.02c1.288 3.789 2.58 7.614 3.629 11.46.61-.009 1.298.036 1.974.039-.859-2.383-1.327-4.902-2.053-7.324-.429-1.44-.893-2.848-1.372-4.256zm-.704-2.053c-.722-.003-1.437.04-2.155.101l.059.17c.104.312.211.625.318.938l-.004-.011.028-.056c.036-.06.082-.106.141-.124l.063-.01h1.902c-.116-.338-.234-.673-.352-1.008zm-3.783-.022c.391 0 .388 1.126 0 1.126h-11.33c-.392 0-.389-1.126 0-1.126zm-14.358.028c-.319-.012-.806-.102-1.11.014-.045.018-.096.018-.14 0l.008.048c-.074.262-.144.52-.215.783.829.04 1.654.087 2.482.15.065-.316.138-.632.2-.956zM25.732 7.403c-1.45-1.355-3.369-2.685-5.45-2.33-1.764.299-2.958 1.662-3.612 3.214-.895 2.045-1.326 4.237-1.946 6.39-.563 1.89-1.127 3.768-1.69 5.661.256-.016.513-.016.769 0l1.605.042c.812-3.704 1.575-7.563 3.172-10.963.648-1.358 1.53-2.347 3.099-2.485 1.518-.135 2.383 1.099 3.045 2.282 1.997 3.55 3.482 7.389 4.814 11.234h.017c.713-.062 1.411-.124 2.121-.124-.022-.062-.042-.121-.065-.18-.794-2.231-1.591-4.462-2.394-6.693-.803-2.231-1.716-4.395-3.485-6.048zM1.763 6.76c3.434-.172 6.868.036 10.305-.06.135-.005.225.133.264.313.123.161.182.362.167.563-.28 3.4-.093 6.809-.161 10.212.042.318-.05.715-.282.715-3.926.18-7.83.023-11.757-.098-.251-.009-.341-.443-.282-.772C-.025 14.2.183 10.78.13 7.34c0-.682.563-.67.563 0 .05 3.318-.14 6.622-.113 9.94 3.735.102 7.462.257 11.2.102.048-3.186-.079-6.372.138-9.552-3.394.087-6.774-.116-10.155.056-.386.02-.4-1.107 0-1.126zm24.223 8.098c.383-.022.4 1.102 0 1.127-2.627.157-5.26.157-7.887 0-.403-.023-.38-1.147 0-1.127 2.626.157 5.26.157 7.887 0zM10.254 9.71c.33-.151.371.525.346.694-.048.315-.093.496-.375.63-.075.04-.168.017-.217-.053-1.585.77-4.01 2.251-4.225 4.031-.02.16-.197.597-.414.335-.434-.523-.803-1.112-1.265-1.614-.143-.155-1.203-1.169-1.555-1.183-.4-.02-.383-1.146 0-1.126.493.022 1.11.662 1.476.985.505.5.96 1.048 1.355 1.637.665-2.017 3.102-3.54 4.874-4.335z" transform="translate(-208 -1061) translate(160 981) translate(38 70) translate(10 10)"/>
                    </g>
                </g>
            </g>
        </g>
    </g>
</svg>
