<svg xmlns="http://www.w3.org/2000/svg" width="40" height="40" viewBox="0 0 40 40">
    <g fill="none" fill-rule="evenodd">
        <g fill="#00B2A9">
            <g>
                <g>
                    <g>
                        <g>
                            <path d="M15.569 2.937C15.859.966 18 1.602 19.33 2.048c1.897.637 2.484 2.015 1.894 3.908-.363 1.164-1.087 1.997-1.992 2.637 1.98.13 3.933.67 5.704 1.663 3.908 2.19 6.934 6.281 7.948 10.706.612-.117 1.15-.291 1.845-.236.597.047 1.216.153 1.734.469.94.573 1.25 1.772 1.152 2.807-.22 2.351-2.757 3.827-4.927 4.062-.02.003-.039 0-.057-.004-.072.218-.151.434-.237.65-4.229 10.593-20.263 13.499-26.952 3.676-.234-.344.027-1.597.337-1.141 3.07 4.508 8.407 6.482 13.77 5.746 4.839-.665 9.454-3.495 11.743-7.842 1.136-2.158 1.43-4.505 1.092-6.794-.318-.01-.405-.757-.214-1.123-1.03-4.305-4.24-8.251-8.242-10.13-4.34-2.038-9.565-1.456-13.559 1.088-2.081 1.326-3.808 3.182-4.922 5.375-1.465 2.883-2.314 7.104-.225 9.854.254.334.007 1.592-.336 1.141-1.2-1.58-1.628-3.488-1.585-5.424-.901-.403-1.483-.097-2.105.587-.69.76-.588 2 .127 2.726.31.315 2.316 1.727 2.717 1.32.422-.428.63.844.337 1.14-.647.658-1.656-.182-2.258-.534-1.014-.595-1.71-1.258-1.996-2.436-.257-1.058-.129-2.253.55-3.136.31-.405.76-.776 1.2-1.03.646-.376.916-.223 1.525.053.14-1.126.416-2.24.772-3.282.974-2.85 2.818-5.334 5.266-7.115 2.062-1.5 4.508-2.446 7.023-2.756.035-.05.078-.088.129-.107 1.115-.425 2.288-.9 3.136-1.766.49-.502 1.057-1.347 1.056-2.075 0-.666-.483-.95-1.047-1.197-.787-.345-2.012-.822-2.877-.646-1.405.286.726.483 1.153.486.467.004.46 1.325 0 1.322-1.242-.01-2.675-.158-2.44-1.753zm9.009 24.696c.27-.68.626.568.473.952-2.043 5.137-8.68 3.9-12.303 1.278-.373-.27-.187-1.563.179-1.298 3.304 2.391 9.73 3.9 11.65-.932zm10.307-5.575c-.648-.063-1.19.07-1.764.184.205 1.486.177 2.99-.126 4.459 1.45-.24 3.23-1.085 3.815-2.45.594-1.387-.774-2.08-1.925-2.193zM8.823 20.136c-.367-.273-.178-1.548.176-1.283 1.991 1.482 4.734 2.784 6.975.816.462-.405.648.874.335 1.15-1.1.966-2.464 1.268-3.908 1.076-1.468-.194-2.427-.901-3.578-1.759zm18.138-2c.413-.495.638.942.348 1.29-.85 1.018-1.882 2.008-3.132 2.377-1.384.407-3.067-.093-4.328-.755-.417-.218-.279-1.684.184-1.44 2.676 1.404 4.962.88 6.928-1.472zM25.463 4.702c1.314-.009 2.595.01 3.904.124.477.042.376.84.253 1.095-.374.769-.916 1.436-1.462 2.103.942-.021 1.92.05 2.828.05.5 0 .497 1.282 0 1.282-1.296 0-2.735-.15-4.01.04-.444.067-.385-.91-.254-1.094.137-.193.281-.383.43-.57l.902-1.116.43-.57c-1.006-.058-2.004-.07-3.021-.062-.5.004-.5-1.279 0-1.282zm6.21-4.693c.932-.022 1.861-.006 2.791.068.483.04 1.384-.057 1.774.305.418.387.38 1.096.246 1.613-.443 1.714-1.808 2.94-2.934 4.231 1.48.213 3.065.199 4.522.266.447.02.428 1.36 0 1.341-1.79-.082-3.774-.036-5.516-.447-.445-.105-.353-.958-.16-1.25.865-1.298 2.04-2.294 2.902-3.614.194-.297.35-.606.527-.912l.017-.045c-.304-.04-.609-.075-.914-.105-1.083-.105-2.168-.134-3.255-.11-.436.01-.441-1.33 0-1.341z" transform="translate(-65 -676) translate(17 596) translate(38 70) translate(10 10) translate(.8)"/>
                        </g>
                    </g>
                </g>
            </g>
        </g>
    </g>
</svg>
