<svg xmlns="http://www.w3.org/2000/svg" width="40" height="40" viewBox="0 0 40 40">
    <g fill="none" fill-rule="evenodd">
        <g fill="#00B2A9">
            <g>
                <g>
                    <g>
                        <g>
                            <path d="M10.136 20.55c.068-.044.149-.036.24.056 1.4 1.41 3.04 2.548 4.449 3.946 1.405 1.395 2.482 3.08 3.866 4.496.13.134.159.462.113.742 0 .195-.035.376-.116.47-2.656 3.11-5.627 5.863-8.511 8.756-.079.079-.15.099-.21.076-.081.12-.191.156-.323.025-1.632-1.625-3.387-3.122-4.936-4.827-1.144-1.26-2.243-2.562-3.402-3.81-.04-.044-.07-.11-.091-.187-.386.269-.556-.887-.277-1.161 2.948-2.897 5.818-5.896 8.803-8.75.18-.17.317-.05.395.167zm-.164 1.049c-2.74 2.624-5.387 5.364-8.086 8.037 1.066 1.163 2.09 2.364 3.15 3.532 1.513 1.666 3.223 3.135 4.823 4.717 2.716-2.723 5.504-5.327 8.037-8.217-1.168-1.302-2.152-2.765-3.399-3.995-1.413-1.392-3.048-2.535-4.448-3.945-.032-.033-.057-.077-.077-.13zm21.607-.51l.31.005c4.386.157 7.204 4.26 7.308 8.465.112 4.533-2.764 7.894-7.242 8.058-2.01.073-4.508-.311-5.978-1.852-1.351-1.418-1.84-3.554-1.904-5.466-.026-.787.613-.771.638 0 .063 1.915.767 4.003 2.468 5.012 1.405.834 3.173 1.067 4.776 1.006 3.854-.147 6.778-2.775 6.593-6.889-.166-3.684-2.966-6.904-6.658-7.035-3.798-.134-7.845 2.288-7.72 6.491.023.787-.616.772-.638 0-.066-2.21.5-4.14 2.184-5.62 1.488-1.31 3.562-2.09 5.55-2.169l.313-.006zM7.826 26.002c-.276.904-1.116 1.609-1.75 2.266-.396.41-.773.975-1.222 1.325.135.164.27.4.334.494.234.34-.015 1.595-.327 1.14-.571-.831-1.378-1.495-.613-2.497.495-.65 1.14-1.2 1.693-1.798.407-.441 1.143-1.003 1.325-1.597.25-.821.702.202.56.667zm23.89-2.55c1.502-.03 3.167.86 3.99 2.15.762 1.197 1.056 2.95 1.14 4.334.05.815-.626.79-.674 0-.072-1.175-.412-2.823-1.238-3.698-.84-.89-2.003-1.47-3.219-1.444-.467.01-.471-1.333 0-1.342zM8.536 2.405c2.582-.012 5.163-.008 7.75.08.238.008.342.386.32.73.032.088.056.193.054.332-.055 4.365.104 8.76.139 13.129.002.237-.056.399-.136.49-.054.122-.134.207-.244.216-4.457.35-8.884.173-13.35.177-.09 0-.161-.058-.214-.146-.16.01-.324-.181-.325-.573-.012-3.997-.144-7.975-.048-11.975.019-.766.64-.766.621 0-.092 3.813.024 7.609.044 11.418 4.357-.001 8.677.16 13.025-.162-.042-4.117-.18-8.254-.134-12.367-4.445-.14-8.87-.045-13.315-.047-.434 0-.43-1.276 0-1.276.647 0 1.293-.002 1.94-.005zm21.517.52c.025.015.05.035.078.065 1.606 1.803 2.798 3.888 4.202 5.835 1.566 2.17 3.18 4.257 4.493 6.595.03.054.047.127.056.208.11.367.023.96-.288.985-5.45.44-10.94.408-16.407.417-.14 0-.235-.123-.288-.292-.216.252-.538-.515-.45-.891.28-1.185 1.038-2.251 1.64-3.3.684-1.19 1.388-2.37 2.112-3.536 1.387-2.234 2.846-4.425 4.444-6.518.197-.258.358.062.408.432zm-.33 1c-1.452 1.93-2.793 3.936-4.066 5.986-.63 1.015-1.245 2.04-1.845 3.072-.503.867-1.167 1.807-1.562 2.773 5.188-.008 10.398.015 15.574-.362-1.25-2.031-2.726-3.876-4.08-5.846-1.267-1.843-2.444-3.782-3.938-5.459-.036-.04-.063-.097-.082-.164zm3.087 5.837c.023.251.51.79.67 1.03.146.22.288.435.423.664.436.732.903 1.446 1.313 2.191.207.378-.118 1.611-.481.951-.475-.864-1.008-1.713-1.538-2.544-.402-.631-.973-1.158-1.043-1.934-.018-.202-.03-.734.238-.828.267-.093.4.262.418.47zM9.866 4.552c.454.006.447 1.46 0 1.454-.835-.01-1.663.159-2.5.162l-1.393.001-1.391-.001v.807c0 .19-.058.735-.324.727-.242-.008-.31-.414-.322-.654l-.001-.073V5.441c0-.19.057-.736.323-.727.012 0 .02.007.031.009.014-.004.027-.009.041-.009 1.012 0 2.023.004 3.035 0 .838-.003 1.666-.172 2.501-.161z" transform="translate(-208 -482) translate(17 402) translate(143) translate(38 70) translate(10 10)"/>
                        </g>
                    </g>
                </g>
            </g>
        </g>
    </g>
</svg>
