<svg xmlns="http://www.w3.org/2000/svg" xmlns:xlink="http://www.w3.org/1999/xlink" width="40" height="40" viewBox="0 0 40 40">
    <defs>
        <path id="lclpp2mpva" d="M0 0.085L39.746 0.085 39.746 35.679 0 35.679z"/>
    </defs>
    <g fill="none" fill-rule="evenodd">
        <g>
            <g>
                <g>
                    <g>
                        <g>
                            <g>
                                <g transform="translate(-208 -870) translate(17 790) translate(143) translate(38 70) translate(10 10) translate(0 2.4)">
                                    <mask id="nr2he09p0b" fill="#fff">
                                        <use xlink:href="#lclpp2mpva"/>
                                    </mask>
                                    <path fill="#00B2A9" d="M1.5 13.375c.28-.33.615-.6.937-.887.021.503.032 1.006.037 1.508-.346-.201-.698-.377-1.083-.489.036-.044.072-.089.109-.132m38.21 15.77c-1.25-3.425-2.732-6.756-4.496-9.95-1.86-3.369-3.478-6.812-5.1-10.3-.74-1.592-1.508-3.172-2.32-4.729-.584-1.12-1.134-2.723-2-3.659-1.733-1.87-3.137 3.016-3.503 3.973-.173.45.257 1.431.557.649.348-.91 1.415-4.911 2.815-3.176.683.846 1.174 2.162 1.675 3.122 1.374 2.635 2.593 5.34 3.837 8.038 2.533 5.49 5.691 10.596 7.822 16.272-3.14 2.459-6.521 4.367-10.461 4.872 1.916-.651 3.862-1.8 5.24-2.967 1.459-1.234 3.123-2.761 3.364-4.763.073-.597-.517-1.204-.622-.342-.229 1.9-2.686 3.828-4.176 4.782-1.661 1.065-3.9 2.261-5.882 2.496-.293.035-.383.559-.304.927-4.462-.046-8.674-1.566-12.727-3.34.35-1.247.716-2.486 1.098-3.72.008.002.014.006.023.006 1.893.046 3.753.45 5.652.435 1.775-.014 3.547-.284 5.249-.785 1.64-.482 3.214-1.181 4.659-2.094 1.458-.92 2.389-2.134 3.634-3.276.298-.274.11-1.51-.326-1.11-1.25 1.147-2.192 2.362-3.677 3.27-1.39.85-2.897 1.514-4.462 1.97-1.743.51-3.568.752-5.384.736-1.668-.014-3.308-.334-4.97-.415.625-1.955 1.287-3.896 1.997-5.828.043.04.094.066.153.07 2.882.185 5.69.625 8.355-.717 2.093-1.055 4.024-2.515 5.733-4.108.296-.276.107-1.513-.326-1.11-1.655 1.543-3.548 2.96-5.579 3.978-2.517 1.262-5.179.882-7.89.691.053-.139.103-.277.156-.415.786-2.067 1.372-4.201 2.2-6.253l.06-.15c.055.098.13.165.23.17 2.918.165 6.03-1.112 8.01-3.3.272-.3.06-1.537-.325-1.11-1.837 2.03-4.752 3.212-7.46 3.13.644-1.552 1.3-3.099 1.876-4.68.163-.45-.27-1.436-.558-.648-.768 2.112-1.697 4.157-2.518 6.248-.88 2.243-1.54 4.562-2.414 6.807-.811 2.084-1.538 4.195-2.21 6.324-4.081.391-8.2.758-12.301.778-.103 0-.18.07-.237.175-.524-3.8-.554-7.649-1.12-11.443 1.164.108 2.033.91 3.034 1.465.894.495 1.823.933 2.745 1.374 1.772.85 3.592 1.625 5.324 2.555.028.015.055.022.08.024.044.016.09-.002.14-.057.017-.016.032-.035.047-.057.75-1.07 1.726-1.97 2.642-2.895 1.068-1.08 1.988-2.258 2.97-3.414.198-.234.118-1.004-.093-1.168-.375-2.662-.608-5.333-.679-8.022-.02-.765-.665-.778-.645 0 .076 2.856.318 5.693.723 8.52-.847 1.012-1.669 2.03-2.602 2.974-.882.892-1.819 1.761-2.558 2.78-1.803-.956-3.69-1.761-5.528-2.648-.878-.423-1.772-.836-2.614-1.328-.214-.125-.418-.255-.62-.384 0-2.715-.263-5.436-.56-8.135 2.14-.059 4.257-.356 6.392-.502 2.272-.156 4.533-.078 6.759-.634.465-.116.38-1.38 0-1.286-2.226.556-4.487.478-6.76.634-2.264.155-4.51.483-6.783.513-.29.005-.391.539-.307.918.194 1.74.383 3.5.5 5.26-.025.013-.05.031-.076.055-.372.35-.781.657-1.114 1.046-.335.394-.627.816-.987 1.188-.05.051-.083.132-.105.227-.067.143-.102.33-.07.52.705 4.11.678 8.296 1.263 12.42.08.57.366.497.523.208.043.225.148.404.316.403 3.964-.02 7.944-.363 11.892-.74-.497 1.632-.965 3.272-1.417 4.918-.113.414.265 1.29.499.807 4.412 1.941 9.022 3.613 13.92 3.453 4.71-.153 8.662-2.28 12.283-5.138.108-.085.165-.264.18-.462.197-.105.346-.627.239-.923" mask="url(#nr2he09p0b)"/>
                                </g>
                                <path fill="#00B2A9" d="M10.714 14.66c-.746-.861-2.237-1.567-2.535-2.725-.093-.362-.155-.944.112-1.117.131-.085.51.027.631.067.53.173.684.608.911 1.12.198.444.483 0 .509-.297.033-.38-.05-1.159.23-1.414.145-.132.553-.153.741-.13.631.075.768.698.798 1.306.069 1.363-.608 2.269-1.397 3.19m1.743-4.856c-.322-.787-1.021-1.214-1.812-.901-.562.222-.742.726-.812 1.286-.198-.305-.451-.545-.86-.661-.651-.185-1.453-.092-1.688.689-.263.876.136 1.888.464 2.667.532 1.266 1.853 1.957 2.701 2.984.084.101.16.108.223.06.07.09.162.107.269-.017 1.378-1.598 2.428-3.88 1.515-6.107" transform="translate(-208 -870) translate(17 790) translate(143) translate(38 70) translate(10 10) translate(0 2.4)"/>
                            </g>
                        </g>
                    </g>
                </g>
            </g>
        </g>
    </g>
</svg>
