<svg xmlns="http://www.w3.org/2000/svg" xmlns:xlink="http://www.w3.org/1999/xlink" width="40" height="40" viewBox="0 0 40 40">
    <defs>
        <path id="soonb9694a" d="M0.12 0.17L22.281 0.17 22.281 28.8 0.12 28.8z"/>
    </defs>
    <g fill="none" fill-rule="evenodd">
        <g>
            <g>
                <g>
                    <g>
                        <g>
                            <g>
                                <path fill="#00B2A9" d="M8.325 1.386c.158-.192 2.14-.174 2.471-.197.729-.051 1.467-.002 2.197.02 1.717.053 3.446.17 5.165.16.589-.004.95-.192 1.299.607.184.422.05 1.055-.379 1.284-.571.305-2.06-.113-2.652-.166C15.382 3 14.347 2.91 13.3 2.902l-3.27-.024c-.344-.002-.687-.01-1.03-.007-.506.003-.489.424-.525-.292.01-.154-.165-1.174-.149-1.193M14.22 32.45c-2.15-.18-4.348.01-6.508-.046-1.191-.031-2.37-.072-3.562-.055-.976.014-2.242.029-2.933-.774-.581-.676-.426-1.801-.456-2.64-.038-1.103-.047-2.183.015-3.287.123-2.221-.17-4.46-.13-6.688.03-1.751-.221-3.49-.084-5.241.105-1.336.215-2.657.252-3.998.044-1.604-.31-3.408.036-4.964.403-1.813 1.717-1.732 3.254-1.773 1.245-.032 2.49-.031 3.735-.009.025 0 .048-.003.07-.011.053.6.206.98 1.008 1.054.861.079 1.765.013 2.63.019.871.006 1.749-.017 2.62.02.919.038 1.85.137 2.765.231.701.072 2.077.425 2.718-.042.393-.286.484-.92.474-1.51 2.76.079 6.482-.048 7.006 3.34.394 2.553.164 5.302-.023 7.865-.039.529.511 1.08.568.305.218-2.975.688-6.523-.174-9.434-.954-3.22-4.59-3.142-7.436-3.227-.02 0-.04.004-.058.009-.2-1.066-.666-1.38-1.849-1.375-1.902.007-3.815-.118-5.717-.176-1.24-.038-2.77-.148-3.94.238-.885.293-.78.89-.678 1.545-1.418-.025-2.835-.022-4.252.026-.9.03-1.848-.08-2.498.618C-.217 3.856.196 6.25.245 7.913c.045 1.515-.022 3.06-.157 4.569-.189 2.107-.013 4.143-.027 6.249-.02 2.807.07 5.594.046 8.4-.011 1.462-.252 3.77.531 5.096 1.04 1.76 3.792 1.22 5.471 1.274 2.687.087 5.439-.125 8.111.098.391.033.424-1.113 0-1.148" transform="translate(-208 -676) translate(17 596) translate(143) translate(38 70) translate(10 10) translate(1.6)"/>
                                <g transform="translate(-208 -676) translate(17 596) translate(143) translate(38 70) translate(10 10) translate(1.6) translate(15.2 11.2)">
                                    <mask id="ioems5cj9b" fill="#fff">
                                        <use xlink:href="#soonb9694a"/>
                                    </mask>
                                    <path fill="#00B2A9" d="M21.305 12.607c-.386.966-2.304.392-3.101.29-.855-.11-1.704-.255-2.551-.415l-1.072-.198c.058-.473.074-.957.119-1.423l.231-2.394c1.606.24 3.21.481 4.818.684.82.104 1.878-.018 1.9 1.023.014.651-.097 1.815-.344 2.433zm-2.178 7.585c-.256 1.822-.44 3.813-1.045 5.55-.941 2.704-3.29 1.73-5.34 1.314-.549-.112-1.098-.215-1.648-.315.57-2.095.907-4.248 1.287-6.387.413-2.331.892-4.66 1.077-7.025 2.136.36 4.279.685 6.426.932-.257 1.976-.48 3.957-.757 5.93zM7.382 26.115c.754-1.486.826-3.55 1.142-5.114.54-2.664 1.063-5.33 1.575-8 .017-.087.018-.174.008-.255.925.164 1.851.327 2.779.485-.18 2.098-.59 4.165-.957 6.235-.426 2.399-.786 4.822-1.467 7.16-.796-.14-1.595-.272-2.392-.402l-.688-.11zM2.542 9.904c-.403-.387-.383-1.525-.18-2.028.27-.666.657-1.079 1.35-1.08.901 0 2.017.38 2.926.515.87.13 1.74.26 2.61.393-.025.103-.034.212-.039.293-.067 1.082-.167 2.162-.282 3.24-1.212-.229-2.423-.462-3.635-.714-.668-.138-2.281-.169-2.75-.619zm1.44-4.356c-.16-.778-.528-1.701-.54-2.489-.029-1.804 1.876-1.93 3.076-1.383 1.841.839 2.54 2.956 2.952 4.848-.165-.02-.331-.044-.497-.062-.02-.003-.038 0-.056.004l-.16-.024c.002-.047.004-.094 0-.142-.17-1.757-1.414-3.978-3.302-4.19-.883-.1-1.3.663-1.348 1.475-.03.495.06.996.225 1.46.09.25.226.467.365.68-.237-.049-.474-.091-.708-.125-.002-.018-.003-.036-.007-.052zm8.717-.604c1.303.147 1.796 1.087 1.697 2.295-1.45-.227-2.901-.454-4.354-.643.122-1.285 1.593-1.773 2.657-1.652zM5.55 5.91c-.005-.093-.017-.187-.04-.278-.138-.536-1.632-2.055-.302-2.35.657-.145 1.566.617 1.979 1.062.524.566.856 1.248.979 2.009l-1.53-.23c-.354-.053-.72-.131-1.086-.213zM14 12.177c-1.502-.277-3.002-.552-4.5-.832.1-.973.185-1.948.251-2.924.047-.088.074-.22.065-.397l-.002-.032c-.003-.05-.01-.145-.03-.245 1.525.186 3.048.406 4.57.634l-.174 1.797c-.06.629-.052 1.359-.18 1.999zm5.469-4.263c-.183-.012-.36-.024-.522-.042-.779-.088-1.556-.19-2.332-.3.405-1.036 1.293-1.853 2.341-2.157.77-.223 1.743-.09 1.413 1.02-.17.57-.508 1.055-.9 1.479zm-.957-4.225c1.194-.482 2.77-.308 3.102 1.21.22 1.001-.154 2.354-.795 3.107-.011.014-.02.03-.03.047-.126-.025-.254-.045-.385-.061.722-1.312 1.196-3.2-.264-3.787-.932-.374-2.158.319-2.83.936-.69.632-1.119 1.44-1.343 2.34l-.151-.022-.729-.113c.607-1.558 1.957-3.064 3.425-3.657zm3.081 4.637c-.003-.003-.008-.004-.012-.006.935-1.762 1.118-4.693-.62-5.756C18.7 1.182 16.107 3.75 14.931 6.01c-.152-.966-.61-1.828-1.622-2.147-1.383-.436-2.876.148-3.515 1.375C9.12 2.765 7.605-.311 4.738.233c-2.61.495-1.854 3.337-1.39 5.301h-.015C1.915 5.472 1.69 7.617 1.525 8.711c-.218 1.454.243 2.208 1.614 2.537 1.95.466 3.91.953 5.882 1.304l.534.095-.01.038c-.402 2.097-.811 4.193-1.23 6.286-.219 1.095-.44 2.19-.664 3.283-.219 1.07-.29 2.621-.973 3.497-.042.054-.07.138-.084.236-1.224-.194-2.448-.39-3.665-.62-.494-.094-1.35-.239-1.754-.598-.488-.433-.378-1.055-.263-1.65.664-3.441.84-6.904 1.709-10.32.106-.417-.307-1.346-.496-.6-.518 2.037-.914 4.09-1.193 6.176C.69 20.193.3 22.043.138 23.86c-.096 1.081.198 1.718 1.136 2.17 1.727.829 3.796.897 5.657 1.198 2.019.327 4.037.65 6.041 1.063 1.76.363 3.633 1.172 4.934-.556 1.104-1.465 1.247-3.836 1.53-5.596.41-2.556.684-5.133 1.019-7.7.005-.037.006-.074.006-.111h.006c1.58.171 1.38-1.487 1.587-2.757.154-.952.57-2.655-.46-3.245z" mask="url(#ioems5cj9b)"/>
                                </g>
                                <path fill="#00B2A9" d="M11.627 8.08l-2.955 3.514c-.45.536-.593.81-1.164.278-.509-.475-1.043-.908-1.597-1.318-.304-.224-.446.9-.142 1.125.756.56 1.457 1.166 2.126 1.847.09.092.18.106.27 0l3.732-4.44c.227-.27.053-1.391-.27-1.006M11.637 16.021c-1.229.603-2.136 1.543-2.942 2.652-.245.338-.803 1.527-1.22 1.537-.185.004-1.338-1.194-1.546-1.348-.314-.233-.475.9-.153 1.14.614.455 1.158.953 1.67 1.52.081.091.213.116.291 0 1.147-1.677 2.185-3.445 4.054-4.361.347-.17.239-1.332-.154-1.14M11.633 22.414c-1.766.68-3.637 2.681-4.067 4.853-.52-.543-1.061-1.045-1.644-1.514-.308-.25-.464.968-.15 1.222.656.528 1.265 1.104 1.841 1.739.288.318.424-.33.424-.547.005-1.951 2.283-3.968 3.745-4.531.344-.132.271-1.383-.15-1.222" transform="translate(-208 -676) translate(17 596) translate(143) translate(38 70) translate(10 10) translate(1.6)"/>
                            </g>
                        </g>
                    </g>
                </g>
            </g>
        </g>
    </g>
</svg>
