<svg xmlns="http://www.w3.org/2000/svg" width="40" height="40" viewBox="0 0 40 40">
    <g fill="none" fill-rule="evenodd">
        <g fill="#00B2A9">
            <g>
                <g>
                    <g>
                        <path d="M.404 19.393c4.464-.256 8.91-.21 13.378-.129 4.412.08 8.855-.132 13.261.129.414.025.39 1.161 0 1.138-4.406-.26-8.849-.048-13.26-.128-4.372-.08-8.72-.124-13.086.114.024 2.375.248 4.766.052 7.127-.231 2.798-.035 5.595-.031 8.398 0 .197-.048.335-.116.418 1.25 0 2.5-.009 3.75-.02l7.5-.083 3.75-.02c1.919 0 3.808-.07 5.71-.253 1.18-.113 2.428.012 3.616.012.841-.001 1.667.139 2.488.025-.037-1.17-.317-2.392-.305-3.567.012-1.242-.175-2.478-.175-3.727 0-2.226.126-4.43.126-6.66 0-.687.579-.681.579 0 0 2.23-.126 4.44-.126 6.66 0 1.316.169 2.607.169 3.921 0 1.31.364 2.596.31 3.893l-.002.015c-.008.258-.097.513-.287.554-.92.201-1.836.023-2.777.024-1.178 0-2.446-.133-3.616-.011-1.9.198-3.792.252-5.71.253-5.1.002-10.2.124-15.3.124-.391 0-.4-1.058-.04-1.131-.072-.083-.123-.224-.124-.427-.003-2.75-.165-5.468-.001-8.22C.289 25.27.11 22.7.115 20.133c-.047-.323.046-.726.289-.74zm13.777 2.699c.158-.007.252.177.284.399 1.64.332 3.203.446 4.525 1.65.956.87 1.557 2.015 1.581 3.324.058 3.096-3.044 5.51-5.934 5.325-2.896-.184-5.411-1.728-5.587-4.874-.14-2.511 2.598-5.721 5.13-5.824zm-.242 1.168c-2.178.276-4.573 3.027-4.224 5.17.362 2.223 3.022 3.091 4.922 3.212 1.18.076 2.212-.069 3.18-.817 1.024-.793 2.363-2.193 2.167-3.604-.396-2.836-3.64-3.169-5.792-3.64-.13-.028-.211-.158-.253-.32zM24.827 6.103l.288.005h5.01c2.98 0 5.83.145 8.778.501.374.045.393 1.025.066 1.137 0 .019.003.036.003.057.012 4.341.124 8.68.124 13.023 0 1.661-.038 3.216-.258 4.85-.186 1.382-.18 2.632-.012 4.018.021.177.014.719-.275.727-1.591.04-3.14.5-4.734.539-1 .025-2.642.623-3.494-.046-.31-.242-.143-1.337.151-1.106.556.436 1.162.187 1.782.1.695-.097 1.389-.069 2.087-.107 1.292-.072 2.561-.421 3.853-.508-.112-1.052-.166-2.038-.045-3.151.174-1.596.375-3.162.375-4.782 0-4.52-.11-9.037-.123-13.557 0-.035.002-.068.004-.1-2.262-.257-4.472-.407-6.746-.44l-.978-.008h-5.011c-1.203 0-2.832-.279-3.981.104-.065.022-.121.011-.17-.017.002.03.009.054.008.087-.038 1.235-.263 2.526-.427 3.746-.253 1.873-.568 3.712-.687 5.602-.043.682-.613.69-.57 0 .102-1.627.28-3.226.52-4.837.119-.785.148-1.56.237-2.342.083-.727.335-1.429.357-2.169.012-.402.21-.562.37-.495-.036-.288.03-.621.21-.681.996-.332 2.22-.178 3.288-.15zm-10.76 18.859c.044.134.665.466.78.553.256.197.51.387.779.567.547.367 1.094.72 1.582 1.164.225.205.208.896-.068 1.05-1.236.686-2.36 1.527-3.49 2.37-.302.224-.41-.693-.26-.992-.083-1.204-.119-2.394-.129-3.613-.002-.335.13-.505.267-.514l.051.003-.004-.01c-.133-.402.258-1.288.492-.578zm-.243.994c.004.033.007.068.007.105.008 1.031-.074 2.115.063 3.135l.009.063c.748-.556 1.5-1.101 2.29-1.596-.496-.351-1.018-.668-1.498-1.041-.297-.232-.632-.404-.87-.666zm16.08-.157c.468.003.927.067 1.393.105.233.02.864.144 1.06-.027.4-.346.559.757.288.991-.287.25-.586.229-.95.208-.597-.035-1.192-.125-1.791-.13-.4-.002-.394-1.15 0-1.147zm2.474-3.116c.372 0 .394 1 .074 1.133l-.074.015h-2.474c-.372 0-.394-1-.074-1.133l.074-.015h2.474zm-.048-3.095c.304.25.132 1.34-.152 1.107-.297-.245-.791-.109-1.15-.104-.581.006-1.162 0-1.743 0-.398 0-.395-1.148 0-1.148.652 0 1.309.023 1.96 0l.125-.008.252-.018c.252-.014.5 0 .708.171zm-7.935-17.09c.625.316.376 1.512.35 2.065-.032.685-.602.69-.57 0 .029-.611.196-.805-.355-.938-.526-.127-1.561.14-2.102.188-1.223.112-2.458.242-3.67.422-3.267.484-6.71.159-10.006.154-.042 0-.08-.016-.113-.04.076.744.106 3.346.116 6.025l.003.643.001.641.001.633v2.533l-.005 1.838v.29l-.001.116v.164c0 .654-.508.685-.565.108l-.005-.108v-.093c.004-3.257.186-6.58-.051-9.827-.083-1.127-.294-2.388-.199-3.5.042-.48.138-.819.659-.82.12 0 .203.104.25.25 3.856.007 7.677.135 11.495-.364.815-.106 1.633-.187 2.448-.267.556-.054 1.813-.367 2.319-.113zm-8.1 12.209c.372 0 .394 1 .074 1.133l-.074.015h-4.948c-.372 0-.394-1-.074-1.133l.074-.015h4.948zm10.392-.374c2.39.13 4.782.126 7.175.125.398 0 .396 1.147 0 1.147-2.393.001-4.784.006-7.175-.124-.406-.022-.385-1.169 0-1.148zm3.21-2.616c.909.002 1.815.018 2.722.063.634.03 1.51-.135 2.061.206.332.205.192 1.318-.15 1.106-.542-.334-2.011-.175-2.653-.198-.825-.03-1.65-.028-2.475-.03-1.698-.003-3.39-.085-5.065.249-.352.07-.412-1.066 0-1.148 1.83-.365 3.704-.252 5.56-.248zm-11.127.124c.396-.004.396 1.143 0 1.147-2.472.023-4.945.125-7.423.125-.398 0-.395-1.148 0-1.148 2.478 0 4.951-.101 7.423-.124zm-1.238-2.742c.394-.01.4 1.137 0 1.147-1.896.05-3.798.246-5.69.374-.386.026-.404-1.12 0-1.148 1.892-.127 3.795-.324 5.69-.373zm1.932-1.117c-1.272.354-2.74.156-4.059.227-1.57.084-3.1.292-4.677.292-.398 0-.395-1.147 0-1.147 1.4 0 2.748-.162 4.14-.265 1.41-.104 3.083.166 4.444-.213.441-.123.497 1.01.152 1.106z" transform="translate(-65 -482) translate(17 402) translate(38 70) translate(10 10)"/>
                    </g>
                </g>
            </g>
        </g>
    </g>
</svg>
