<svg xmlns="http://www.w3.org/2000/svg" width="40" height="40" viewBox="0 0 40 40">
    <g fill="none" fill-rule="evenodd">
        <g fill="#00B2A9" fill-rule="nonzero">
            <g>
                <g>
                    <g>
                        <g>
                            <g>
                                <path d="M37.528 30.295c.095-5.606.354-11.328.065-16.925-.196-3.79.489-10.665-2.659-12.514-.816-.482-3.111-.46-3.993-.551-1.213-.128-3.685 0-4.918-.053C23.534.157 21.02.197 18.511.177 13.646.141 8.748-.121 3.885.066 1.967.14 1.29 1.31.843 3.557.282 6.384.41 9.46.344 12.354c-.075 3.279-.13 6.594-.128 9.892 0 3.203.25 6.41-.203 9.574-.111.78.476 1.55.643.442.574-4.036.206-8.196.233-12.292.006-2.265.045-4.56.095-6.839.059-2.698-.06-5.557.327-8.213.328-2.157.853-3.062 2.574-3.18.843-.06 1.699 0 2.545.02l6.357.049c4.016.03 8.033.039 12.05.091 1.819.027 4.897-.088 6.707.128 2.646.328 5.528 2.19 5.476 5.397-.079 4.738-.033 10.187-.079 15.098-.023 2.331-.026 4.663-.059 6.994-.02 1.311-.046 2.623-.092 3.934-.042 1.26.128 1.689-.485 2.76-.95 1.673-4.37 1.857-5.816 1.827-1.945-.04-3.886-.03-5.83 0-4.24.06-8.479.098-12.718-.046-2.125-.072-4.367 0-6.472-.39-.958-.184-4.38-1.725-4.217-3.567.07-.777-.534-.256-.632.869-.328 3.56 3.128 4.183 5.436 4.42 4.54.468 9.124.455 13.675.435 2.272 0 4.541-.042 6.81-.075 1.99-.026 5.574.416 7.515-.19 1.272-.397 2.623-1.312 3.052-2.98.597-2.302.377-3.84.42-6.217z" transform="translate(-208 -288) translate(17 208) translate(143) translate(38 70) translate(10 10) translate(.8)"/>
                                <path d="M8.787 14.574c.43.593.934.606 1.583.357 2.037-.777 3.837-1.498 6.05-1.701 2.357-.214 4.669 0 7.006.275 1.233.144 2.466.302 3.685.518.456.079.915.154 1.361.272.233.06.925.37.862.177.214.656.63.105.61-.328-.082-2.02 0-4.13-.255-6.134-.074-.742-.425-1.428-.984-1.921-1.721-1.555-4.643-1.905-6.846-2.135-3.105-.311-6.24.1-9.16 1.2-1.702.626-4.538 1.512-4.473 3.748 0 .387.177.587.328.59-.298 1.465-.685 3.803.233 5.082zm10.459-5.095c.09.392.157.79.203 1.19.06.39.105.78.154 1.17-.328 0-.675-.02-1.013-.023.135-.449.312-.891.45-1.33.045-.142.12-.67.206-1.007zm-5.21-3.472c2.474-.765 5.077-1.023 7.653-.761 1.881.184 3.885.488 5.603 1.311 1.183.574 1.701 1.154 1.79 2.509.088 1.354.125 2.724.17 4.088-.822-.41-2.167-.462-2.77-.557-1.997-.328-4.016-.57-6.03-.722h-.167c-.098-.724-.164-1.459-.311-2.173-.118-.554-.217-1.23-.535-1.709-.058-.079-.163-.106-.252-.065-.531.305-.466.983-.6 1.521-.21.8-.557 1.564-.728 2.374-1.973.031-3.928.375-5.793 1.016-1.233.443-2.912 1.84-3.105-.255-.057-.96.027-1.924.249-2.86.082-.396-.135-.783-.328-.776v-.05c-.056-1.442 4.082-2.56 5.154-2.891zM8.197 32.459c1.19 2.023 5.485 2.82 5.596-.302.042-.577-.08-1.154-.35-1.665-.328-.597-1.115-1.099-1.368-1.725-.698-1.734 1.6-3.137 2-4.695.295-1.147.328-2.623-.53-3.528-.984-1.023-2.407-1.046-3.25.053-.25.328 0 1.583.328 1.134 1.105-1.446 2.95-.236 2.925 1.312-.03 1.203-1.204 1.937-1.725 2.924-.521.987-.984 2.767-.285 3.738.537.76 2.482 2.174 1.085 3.075-.853.548-2.554-.095-3.256-.554-2.649-1.734-.567-7.308.47-9.459.18-.37-.148-1.583-.463-.928-.957 1.934-1.55 4.026-1.751 6.174-.125 1.495-.226 3.102.574 4.446zM15.889 19.85c-.099 0-.2.124-.233.193-.112.236-.204.478-.328.711-.138.294-.138.634 0 .928.04.108.144.178.259.174.075.242.223.39.423.213.098-.089.236-.115.328-.22.176-.236.26-.529.239-.823.007-.442-.184-1.092-.688-1.177zM14.407 18.689c-.509.213-.574.806-.57 1.291-.006.16.027.318.094.463.043.085.125.193.233.193.108 0 .24-.164.285-.328.175-.078.309-.225.37-.406.156-.382.095-.818-.16-1.141-.057-.08-.162-.11-.252-.072zM13.043 18.125c-.032-.036-.077-.057-.125-.056l-.088.023c-.064.04-.115.098-.145.167 0 .046-.036.089-.052.134-.03.107-.045.218-.043.328v.089c-.003.085.006.17.026.252.012.074.035.144.07.21.021.055.057.102.104.138.033.036.08.057.128.056l.085-.023c.065-.04.115-.1.145-.17l.052-.132c.03-.107.045-.217.046-.328v-.088c0-.085-.01-.17-.03-.253-.01-.074-.033-.147-.068-.213-.02-.054-.058-.101-.105-.134zM10.127 18.115c-.102.06-.185.142-.242.236-.069.114-.113.237-.131.364v.055c-.044.118-.066.241-.065.364-.005.16.035.318.115.463.05.075.146.213.27.193.125-.016.241-.07.326-.15.107-.101.186-.221.23-.351.061-.196.074-.4.039-.6-.016-.184-.102-.358-.246-.496-.073-.062-.177-.16-.296-.078zM11.58 17.856c-.105.017-.193.09-.23.19-.066.146-.1.305-.098.465v.237c-.003.16.03.318.099.462.036.075.128.203.23.193.106-.018.194-.092.232-.193.066-.145.098-.303.095-.462v-.237c.004-.165-.032-.33-.105-.478-.03-.06-.118-.187-.223-.177zM25.85 30.948c-.525.754-.712 1.813-.125 2.622 1.085 1.522 3.488.38 4.403-.767 2.177-2.721 2.823-6.901 1.59-10.18-.482-1.292-1.246-2.95-2.793-3.108-1.138-.108-2.043.272-2.095 1.465-.033.79.622.784.655 0 0-.239 1.731-.167 2.04 0 1.118.538 1.852 2.502 2.003 3.646.328 2.476-.21 6.522-2.656 7.87-.37.202-1.36.635-1.787.547-1.518-.328-.783-1.138-.38-1.689.508-.698 1.03-1.282 1.18-2.174.11-.572.016-1.164-.262-1.675-.56-.964-3.607-3.279-1.233-4.302.397-.17.289-1.462-.174-1.265-1.38.59-1.439 2.295-1.085 3.57.257.81.7 1.548 1.295 2.154.656.741.984.656.328 2.053-.273.43-.575.843-.905 1.233zM23.816 20.21c-.183-.11-.407-.13-.606-.053h-.017c-.069.004-.137.02-.2.05-.154.065-.21.327-.23.459-.034.219-.004.443.086.645.017.044.037.087.06.128.022.07.045.138.075.207.02.054.043.106.068.157v.05c.02.155.131.284.282.327l.115.027c.049.004.096-.016.128-.053.146.039.302-.005.407-.115.233-.296.32-.681.236-1.049-.019-.305-.165-.589-.404-.78zM25.285 20.092c.052-.262-.009-.533-.167-.748v-.042c-.048-.215-.17-.406-.348-.538-.078-.06-.2 0-.252.069-.087.112-.14.248-.15.39-.043.31.008.626.143.908.097.165.226.308.38.42.083.062.2 0 .253-.069.084-.114.133-.25.141-.39zM26 18.856c.017.114.052.225.105.328v.036c.02.036.043.069.065.105.03.034.068.06.112.072.05.03.106.05.164.059.08.006.161-.006.236-.036.102-.03.174-.223.197-.302.046-.164.058-.336.032-.505-.009-.143-.061-.28-.15-.393l-.079-.066c-.034-.013-.071-.013-.105 0h-.02c-.026-.072-.068-.137-.124-.19-.056-.057-.143-.07-.213-.033-.101.073-.171.18-.197.302-.013.052-.023.104-.03.157v.19c-.007.092-.005.184.007.276zM28.548 18.882c.104 0 .19-.108.232-.193.066-.145.099-.303.095-.463.007-.16-.025-.32-.095-.465-.114-.184-.272-.407-.518-.407s-.403.223-.518.407c-.067.145-.1.305-.095.465-.005.16.028.318.095.463.05.088.118.193.233.193.115 0 .18-.108.233-.193-.043.072 0 .026 0 0h.04c.029.032.061.078 0 0 .117.081.183.193.298.193zM30.262 17.587l-.078-.066c-.054-.03-.12-.03-.174 0-.123.038-.231.114-.308.217l-.066.105c-.033.066-.056.137-.069.21-.031.14-.037.284-.016.426.015.1.043.196.085.288.036.076.131.203.233.194h.085c.093-.017.172-.077.213-.161.048-.028.086-.069.112-.118.04-.055.069-.117.085-.184.047-.164.058-.336.033-.505-.004-.145-.05-.287-.135-.406z" transform="translate(-208 -288) translate(17 208) translate(143) translate(38 70) translate(10 10) translate(.8)"/>
                            </g>
                        </g>
                    </g>
                </g>
            </g>
        </g>
    </g>
</svg>
