<svg xmlns="http://www.w3.org/2000/svg" width="40" height="40" viewBox="0 0 40 40">
    <g fill="none" fill-rule="evenodd">
        <g fill="#00B2A9">
            <g>
                <g>
                    <g>
                        <path d="M36.441 32.002c1.288.015 3.296.529 3.543 2.061.17 1.065-1.05 1.957-1.764 2.531-1.404 1.129-3.271 1.387-4.971 1.893-1.395.414-2.788.788-4.234.973-4.731.608-9.747.68-14.502.33-4.168-.306-8.986-.989-12.626-3.167l-.29-.174c-.868-.527-1.682-1.112-1.59-2.269.087-1.094 2.082-2.362 3.004-1.67.32.24.3.86.076 1.155l-.093.123c-.05.064-.167.118-.245.064l-.092-.067c-.05-.035-.088-.09-.119-.158-.537-.051-1.4.301-1.555.7-.186.477.173.516.605.793.546.348 1.116.705 1.706.975 2.013.92 4.322 1.424 6.488 1.828 4.422.825 8.933.836 13.413.65 3.713-.154 7.108-.475 10.668-1.54 1.475-.442 2.976-.671 4.189-1.658.295-.24.645-.716.975-.907.055-.057.103-.12.153-.18-.631-.794-1.767-1.01-2.739-1.022-.445-.006-.437-1.27 0-1.264zM17.558 2.538c.055-.076.16-.105.244-.063 1.163.58 2.054 1.578 2.283 2.88.225 1.282-.289 2.347-.99 3.35 1.213.115 1.453 1.951 1.709 3 .502 2.056.58 4.26.758 6.37h.24l5.785.01c1.843.003 3.798-.58 5.51.363 2.131 1.175 2.098 3.973 2.111 6.065.02 3.073.31 6.161.011 9.23-.083.85-.668.249-.61-.337.287-2.951-.016-5.936-.034-8.893-.004-.474.002-.985-.024-1.496-.49.274-.75 1.118-1.19 1.476-.511.418-1.162.643-1.823.604-1.045-.061-1.855-.718-2.442-1.535-.237.661-.776 1.21-1.555 1.445-1.771.537-3.59-.23-4.882-1.444-.295.668-.986 1.231-1.724 1.462-1.834.572-3.633-.24-4.77-1.641-.327.66-1.065 1.15-1.881 1.324-1.503.32-2.905-.28-3.872-1.346-.368.894-1.402 1.551-2.536 1.57-1.248.022-2.964-.795-3.659-2.01-.11 1.045-.065 2.136-.102 3.017-.061 1.504-.16 3.053-.055 4.556.15 2.172 1.927 2.647 3.707 2.992l.368.07c.245.046.487.091.724.14 1.54.322 3.095.578 4.657.774 6.47.813 12.852.528 19.26-.615.396-.07.457 1.183 0 1.264-8.723 1.556-17.892 1.627-26.49-.76-3.05-.847-2.9-3.36-2.867-6.07.025-2.011.095-4.037.293-6.04.128-1.3.383-2.403 1.39-3.3 1.112-.992 2.19-.87 3.623-.863 1.86.009 3.721-.004 5.582-.015 1.086-.006 2.172-.006 3.258-.004-.086-2.019-.324-4.029-.321-6.047.001-1.034-.076-2.467.847-3.063-.02-.033-.035-.07-.05-.11-.045-.039-.083-.091-.102-.133l-.062-.133c-.036-.078-.048-.194-.044-.32-.173-.106-.367-.204-.466-.298-.17-.163-.314-.353-.437-.554-.272-.448-.422-.97-.47-1.489-.114-1.255.373-2.386 1.098-3.383zM33.09 19.766c-1.296-.83-2.668-.557-4.087-.444-2.552.203-5.177.026-7.736.016-2.225-.008-4.45-.016-6.676-.004-1.594.01-3.189.02-4.783.02-1.329-.001-2.983-.317-4.13.473-.52.358-.858.86-1.086 1.436l.055.1c.097.173.073.54-.016.797.225.009.4.134.526.378l.551.46c.409.28.896.496 1.383.597.387.08 3.045-.132 2.776-.956-.054-.088-.108-.178-.157-.27-.13-.244.039-1.454.384-.993.025.033.041.066.064.1l.005.008c.065.095.123.19.17.285.538.841 1.313 1.417 2.308 1.653.25.059 3.41-.023 3.026-.758-.18-.346.088-1.518.448-.894.629 1.09 1.65 1.88 2.901 2.11.43.078 3.636-.37 2.953-1.064-.223-.285-.1-1.518.32-1.092.086.088.158.177.222.267.632.732 1.393 1.32 2.327 1.64.538.184 1.156.286 1.73.258.507-.025 2.51-.327 1.894-1.437-.152-.335.092-1.533.448-.893.048.087.09.176.128.264.597 1.164 1.634 2.224 3.054 1.957.262-.019.503-.1.724-.242.53-.295.862-.747.994-1.355.316-.345-.023-.23.582-.408-.182-.803-.55-1.527-1.302-2.009zM20.81 16.804c-.845-.03-1.762.089-2.534.44-.034.015-.065.02-.094.019.008.267.017.535.024.804l2.715.006-.111-1.269zm-.289-2.709c-.05.068-.116.11-.195.11-.724-.004-1.746.212-2.275.75.032.354.058.709.077 1.062.782-.35 1.701-.494 2.56-.478-.049-.483-.104-.964-.167-1.444zm-.317-2.242l-.027.02c-.699.365-1.42.706-2.17.955-.039.013-.075.014-.109.009.01.28.024.56.044.838.64-.503 1.61-.738 2.384-.734.02 0 .037.006.054.01-.043-.34-.1-.721-.176-1.098zm-.978-1.92c-.822-.296-1.179.804-1.297 1.644.67-.23 1.317-.531 1.947-.856-.165-.39-.375-.688-.65-.788zm2.793-3.123l.074.015 3.69 1.264c.39.133.301 1.379-.168 1.218l-3.69-1.264c-.39-.133-.3-1.379.168-1.218zM18.84 4.562c-.412-.46-.748-.877-1.28-.475-.316.24-.491 1.133-.487 1.452.016 1.14 1.263 1.458 1.549 2.253.515-.314.893-1.524.888-1.811-.009-.54-.323-1.032-.67-1.419zm6.104-.9c.486-.143.554 1.105.169 1.22-.645.191-1.288.4-1.94.572-.418.11-.839.16-1.2-.12-.344-.267-.16-1.473.169-1.219.379.294.823.13 1.24.011.522-.15 1.042-.309 1.562-.463zM23.433.033c.365-.245.525.98.168 1.22-.845.567-1.535 1.366-2.273 2.064-.421.398-.61-.818-.32-1.091.787-.745 1.522-1.586 2.425-2.193z" transform="translate(-65 -101) translate(17 21) translate(38 70) translate(10 10)"/>
                    </g>
                </g>
            </g>
        </g>
    </g>
</svg>
