<svg xmlns="http://www.w3.org/2000/svg" xmlns:xlink="http://www.w3.org/1999/xlink" width="40" height="40" viewBox="0 0 40 40">
    <defs>
        <path id="odhzkfek2a" d="M0.301 0.193L15.083 0.193 15.083 12.672 0.301 12.672z"/>
    </defs>
    <g fill="none" fill-rule="evenodd">
        <g>
            <g>
                <g>
                    <g>
                        <g>
                            <g>
                                <path fill="#00B2A9" d="M33.217 37.946c-10.749.797-21.443.518-32.204.43-.096-1.38-.163-2.76-.209-4.14h4.22c.512 0 .516-1.505 0-1.505H.761c-.03-1.385-.04-2.77-.038-4.154h3.343c.512 0 .515-1.505 0-1.505H.729c.01-1.247.028-2.493.05-3.74.01.001.018.005.029.005H3.55c.511 0 .515-1.505 0-1.505H.806c.033-1.728.067-3.457.093-5.186 1.404-.09 2.8-.053 4.198.113.48.057.534-1.442 0-1.505-1.391-.165-2.78-.201-4.178-.114.017-1.53.02-3.062.005-4.593.01.001.018.005.028.005h1.96c.511 0 .515-1.505 0-1.505H.952c-.016 0-.03.006-.046.01-.013-.66-.03-1.32-.051-1.98-.03-.894-.768-.912-.738 0 .354 10.75-.586 21.508.22 32.248.014.18.124.55.356.552 10.87.085 21.669.38 32.524-.426.524-.04.497-1.542 0-1.505" transform="translate(-351 -482) translate(17 402) translate(286) translate(38 70) translate(10 10) translate(2.4)"/>
                                <path fill="#00B2A9" d="M26.687 21.683c.083.377.16.755.232 1.134-1.818.446-3.39 1.388-4.622 2.795-.03.029-.059.065-.084.12-.425.227-.774.172-1.046-.165-.043-.033-.086-.034-.126-.02-.007-.007-.013-.017-.02-.023-1.073-.954-2.18-1.552-3.476-2.11.057-.427.097-.856.117-1.288 3.027.123 6.025-.032 9.025-.443m1.209 10.368c.007.49.214 1.791-.088 2.22-.425.6-1.66.432-2.12.084-.737-.557-1.23-1.911-1.493-2.764-.518-1.681-.9-3.422-1.33-5.135 1.114-1.17 2.51-1.99 4.093-2.37.067-.017.121-.058.165-.114.444 2.665.729 5.377.773 8.079m-9.305.263c-.393.686-1.601 2.406-2.552 2.246-1.146-.193-.559-2.556-.483-3.328.22-2.216 1.255-4.24 1.74-6.401.015-.067.026-.134.04-.2 1.162.495 2.189 1.015 3.157 1.827-.804 1.871-.859 4.034-1.902 5.856M11.154 21.26c1.004-.192 2.4-1.455 3.25-1.98.497-.308.998-.693 1.528-.944.332-.158.32-.393.726-.207.448.206.315 1.715.341 2.247.14 2.787-.646 5.15-1.468 7.759-.366 1.16-2.042 8.367.851 7.63 1.986-.505 3.101-3.208 3.668-4.89.203-.602.67-4.024 1.192-4.12-.094.018.419.541.863.405.083-.024.15-.052.209-.084.332 1.254.668 2.467.977 3.742.372 1.535 1.132 5.19 3.254 5.181 1.395-.006 1.837-.808 1.947-1.966.163-1.705.015-3.464-.118-5.164-.194-2.482-.52-4.959-1.037-7.395-.212-1-.453-1.996-.758-2.972-.034-.11-.067-.226-.1-.343.201.124.429.246.544.323 1.02.682 2.125 1.232 3.18 1.857 1.31.776 2.253 1.027 3.122-.381.82-1.33-.362-2.397-1.356-3.187-1.216-.966-2.47-1.925-3.73-2.833-1.046-.752-2.229-1.238-3.325-1.91-.386-.236-.545 1.005-.17 1.234 1.715 1.051 3.359 1.93 4.965 3.172.96.743 1.913 1.567 2.895 2.275.1.096.187.202.268.314-.09.141-.301.395-.434.488-.983.692-3.091-1.032-4.05-1.546-.721-.385-2.046-1.68-2.72-1.644-.154.009-.245.188-.277.317-.219.89.435 1.85.689 2.685.112.37.216.743.314 1.117-2.895.381-5.787.524-8.707.407.014-1.085.043-2.27-.097-3.288-.206-1.482-1.4-.737-2.23-.21-1.1.703-2.228 1.365-3.334 2.061-.174.11-.477.334-.608.39-1.009.424-1.306-.371-.673-1.193.825-1.075 2.135-1.748 3.23-2.505 1.076-.743 2.016-1.648 3.293-2.011.389-.111.323-1.374-.171-1.234-1.276.363-2.218 1.269-3.291 2.01-1.556 1.076-3.644 2.12-4.131 4.116-.252 1.03.107 2.539 1.48 2.277" transform="translate(-351 -482) translate(17 402) translate(286) translate(38 70) translate(10 10) translate(2.4)"/>
                                <g transform="translate(-351 -482) translate(17 402) translate(286) translate(38 70) translate(10 10) translate(2.4) translate(12.8)">
                                    <mask id="p2u4cmgopb" fill="#fff">
                                        <use xlink:href="#odhzkfek2a"/>
                                    </mask>
                                    <path fill="#00B2A9" d="M1.06 6.805c.163-.18.303-.27.492-.236.02.355.08.706.185 1.046-.233-.139-.596-.38-.641-.428-.149-.158-.178-.223-.036-.382m12.785-.489c.148.017.306.044.436.123.05.03.095.06.133.104-.14.372-.647.621-1.078.737.035-.31.047-.622.035-.936.15-.028.302-.047.474-.028M1.247 8.671c.31.189.694.501 1.013.176.024-.025.043-.058.06-.095.325.22.53-.754.33-1.07-1.48-2.336.986-5.194 3.127-5.915.163-.055.326-.1.489-.138-.113.171-.206.361-.273.578-.277.895-.09 1.794.831 2.12.718.254 1.492.39 1.67-.567.069-.364.028-.873-.307-1.097-.228-.152-.538-.143-.801-.148-.203-.003-.314.268-.334.564-.074-.024-.15-.047-.22-.076-.12-.049-.29-.225-.314-.093.032-.585 1.086-.978 1.48-1.128.082-.03.141-.113.182-.22 1.828.285 3.436 1.566 4.194 3.432.086.21.151.417.202.622-.03.25.008.528.11.685.185 2.464-1.963 4.484-4.378 4.955-2.157.421-4.26-.33-5.523-2.177-.31-.452-.559.795-.327 1.134 1.821 2.662 5.383 3.158 8.063 1.51 1.214-.747 2.06-1.836 2.503-3.066 1.014-.12 1.95-.841 2.05-1.917.05-.54-.083-1.234-.575-1.538-.212-.131-.469-.181-.713-.203-.224-.02-.409.025-.603.066-.12-.479-.291-.953-.528-1.412C11.099.645 7.685-.783 4.657.928c-1.481.837-2.67 2.54-3.013 4.325-.15-.05-.28-.049-.474.064-.186.109-.373.269-.508.44C.284 6.24.23 6.95.374 7.53c.134.534.42.864.873 1.142" mask="url(#p2u4cmgopb)"/>
                                </g>
                                <path fill="#00B2A9" d="M22.317 9.037c.08-.231.138-.65 0-.869-.106-.17-.259-.272-.353 0-.565 1.635-2.371 1.01-3.28.204-.271-.242-.41.937-.132 1.184 1.148 1.02 3.102 1.4 3.765-.519" transform="translate(-351 -482) translate(17 402) translate(286) translate(38 70) translate(10 10) translate(2.4)"/>
                            </g>
                        </g>
                    </g>
                </g>
            </g>
        </g>
    </g>
</svg>
