<svg xmlns="http://www.w3.org/2000/svg" xmlns:xlink="http://www.w3.org/1999/xlink" width="40" height="40" viewBox="0 0 40 40">
    <defs>
        <path id="6a0qhy9pgb" d="M-0.001 0.069L2.957 0.069 2.957 3.098 -0.001 3.098z"/>
        <path id="kfws6yij1d" d="M0.221 0.074L3.174 0.074 3.174 3.126 0.221 3.126z"/>
        <path id="3sevmjqgaf" d="M0 0.05L38.184 0.05 38.184 18.4 0 18.4z"/>
        <filter id="xhpd7qxlga">
            <feColorMatrix in="SourceGraphic" values="0 0 0 0 0.000000 0 0 0 0 0.698039 0 0 0 0 0.662745 0 0 0 1.000000 0"/>
        </filter>
    </defs>
    <g fill="none" fill-rule="evenodd">
        <g>
            <g>
                <g>
                    <g>
                        <g filter="url(#xhpd7qxlga)" transform="translate(-351 -870) translate(17 790) translate(286) translate(38 70) translate(10 10)">
                            <path fill="#1E647D" d="M24.665 20.414c.071-.036.145-.107.219-.134.064-.024.129-.036.195-.044-.006.122.01.247.046.34-.163-.027-.305-.092-.46-.162m1.694.532c.102-.347.019-.772-.294-.986-.071-.048-.153-.096-.239-.135-.001-.124-.027-.245-.08-.34-.305-.552-1.18-.197-1.48.18-.473.597-.303 1.503.415 1.813.572.247 1.48.144 1.678-.532"/>
                            <g transform="translate(13.6)">
                                <mask id="s7009h2hoc" fill="#fff">
                                    <use xlink:href="#6a0qhy9pgb"/>
                                </mask>
                                <path fill="#1E647D" d="M1.33 1.377c-.008.154.011.311.057.429-.202-.035-.377-.116-.569-.205.089-.046.18-.135.27-.17.079-.03.16-.045.241-.054M.84 2.944c.705.312 1.824.182 2.068-.671.125-.438.023-.975-.362-1.245-.088-.06-.19-.12-.295-.17C2.248.7 2.216.548 2.15.428 1.776-.269.697.18.328.655c-.585.753-.375 1.898.51 2.288" mask="url(#s7009h2hoc)"/>
                            </g>
                            <path fill="#1E647D" d="M18.083 6.074c.108-.018.227.01.316.069.044.028.068.05.082.067-.055.092-.106.175-.187.256-.149.148-.422.328-.656.246-.008-.002-.018-.009-.03-.017.113-.05.213-.207.246-.303.028-.083.042-.17.047-.258 0-.009.004-.02.004-.028-.009.103.1-.018.178-.032m.852 1.102c.37-.64.402-1.649-.225-2.166-.483-.4-1.005-.177-1.277.233-.103.004-.208.094-.256.184-.362.69-.634 1.707.017 2.34.602.586 1.43-.055 1.74-.591"/>
                            <g transform="translate(36 23.2)">
                                <mask id="ntqgd2lwie" fill="#fff">
                                    <use xlink:href="#kfws6yij1d"/>
                                </mask>
                                <path fill="#1E647D" d="M1.054 1.633L.92 1.545C.905 1.523.893 1.51.88 1.496l.11-.073c.148-.085.318-.102.489-.091.04.109.098.183.173.2.01.115.033.222.069.31-.231-.017-.457-.085-.668-.209m1.956-.42C2.84.956 2.478.862 2.17.808c.027-.315-.028-.65-.262-.694C1.184-.02.469.15.268 1.11c-.196.93.233 1.643.963 1.905.612.22 1.621.172 1.88-.68.102-.337.09-.829-.101-1.121" mask="url(#ntqgd2lwie)"/>
                            </g>
                            <path fill="#1E647D" d="M32.846 21.15c-.362.155-.258 1.282.159 1.104 1.844-.787 2.554-2.826 2.024-4.61-.028-.094-.117-.3-.259-.283-.758.091-1.378-.072-1.98-.519-.367-.272-.382.86-.23 1.046.967 1.196-1.14 2.247-1.928 2.668-.311.166-.282.818-.072 1.046.5.539 1.025 1.046 1.584 1.53.407.35.585-.745.302-.99-.328-.283-.642-.578-.948-.88.745-.45 1.418-.995 1.729-1.821.131-.35.189-.715.176-1.074.366.133.753.182 1.172.154.17 1.147-.644 2.167-1.73 2.63M15.544 24.303c1.663-1.257 3.106.644 3.838 1.925.099.172.23.234.388.098.602-.521 1.168-1.07 1.708-1.653.27-.291.06-1.495-.322-1.08-.475.512-.974.993-1.496 1.457-.722-1.177-1.929-2.622-3.314-2.394.033-.183.054-.37.06-.562 1.489-.29 3.012.448 3.64 1.824.287.628.616-.527.453-.885-.788-1.725-2.662-2.602-4.522-2.086-.249.069-.245.602-.223.769.07.566-.082 1.047-.456 1.443-.169.212-.14 1.435.246 1.144M8.944 11.131c.407.352.585-.744.303-.988-.33-.284-.643-.58-.95-.88.746-.45 1.419-.996 1.73-1.822.131-.35.189-.715.176-1.074.366.133.753.181 1.172.154.17 1.147-.644 2.166-1.73 2.63-.361.154-.257 1.281.16 1.103 1.844-.787 2.554-2.825 2.024-4.61-.028-.095-.117-.3-.259-.283-.758.091-1.378-.073-1.98-.519-.367-.272-.382.859-.23 1.046.967 1.196-1.14 2.247-1.928 2.668-.311.166-.282.818-.072 1.046.5.54 1.025 1.046 1.584 1.53M31.656 26.897c-1.663 1.257-3.105-.644-3.838-1.925-.099-.172-.23-.234-.387-.098-.603.521-1.17 1.07-1.71 1.653-.269.291-.06 1.494.323 1.08.475-.512.974-.993 1.496-1.457.723 1.177 1.929 2.622 3.314 2.394-.034.183-.054.37-.06.562-1.489.29-3.012-.448-3.64-1.824-.287-.628-.616.527-.453.885.789 1.725 2.663 2.602 4.522 2.086.249-.069.245-.602.223-.769-.07-.566.082-1.047.456-1.443.169-.212.14-1.435-.246-1.144"/>
                            <path fill="#1E647D" d="M8.187 15.26c-.945 1.369-1.854 2.762-2.729 4.179-.797-1.705-1.572-3.306-2.855-4.64 1.85.366 3.702.561 5.584.461m14.288-3.73c-.269 1.611-.506 3.227-.713 4.847-1.42-1.069-2.872-2.089-4.355-3.064.731-.224 1.459-.459 2.18-.706.974-.334 1.935-.696 2.888-1.077m6.891-2.69c-.163 1.286-.24 2.58-.204 3.881.01.368.014.754.055 1.13l-4.766-3.145c1.624-.708 3.223-1.474 4.805-2.277.007.16.044.312.11.41m6.318-3.155c-.371 1.383-.419 2.796-.12 4.195-1.714-.732-3.303-1.804-5.147-2.048 1.735-.905 3.452-1.85 5.16-2.808-.035.246.007.527.107.661M14.381 18.042c-.272.075-.478-.037-.618-.335-.401-.279-.75-.704-1.11-1.042-.615-.579-1.23-1.158-1.847-1.736 1.68-.304 3.348-.691 4.998-1.15-.522 1.2-.396 2.68-1.041 3.822.032.357-.096.504-.382.44M.283 14.262c.447.117.893.227 1.34.329-.031.27.005.578.148.7 1.697 1.437 2.528 3.37 3.455 5.352.107.229.29.192.407 0 .982-1.607 2.011-3.18 3.087-4.723.095-.136.1-.445.052-.7.307-.026.614-.062.922-.105.02.054.047.098.08.13l2.958 2.78c.318.298 1.36 1.684 1.845 1.536.558-.171.682-1.354.813-1.797.312-1.059.38-2.645 1.026-3.547.044-.061.069-.159.08-.27 1.844 1.184 3.64 2.439 5.389 3.766.206.156.341-.304.354-.41.248-2.018.544-4.03.887-6.034.161-.066.32-.135.481-.202.016.189.071.361.18.433l6.263 4.132c.35.231.449-.874.221-1.071-.807-.702-.565-2.434-.524-3.397.03-.74.102-1.472.201-2.203 2.225.12 4.04 1.561 6.101 2.302.384.137.398-.653.326-.861-.575-1.64-.584-3.276.046-4.902.047-.12.125-.728-.028-.935l1.799-1.018c.313-.177.282-1.294-.154-1.13-.16.062-.321.122-.483.183-.069.026-.12.093-.157.18-5.64 3.197-11.329 6.363-17.447 8.519-3.19 1.124-6.484 2.022-9.818 2.58-3.353.56-6.589.068-9.85-.789-.334-.088-.418 1.062 0 1.172"/>
                            <g transform="translate(0 21.6)">
                                <mask id="9mtqcwdmzg" fill="#fff">
                                    <use xlink:href="#3sevmjqgaf"/>
                                </mask>
                                <path fill="#1E647D" d="M32.756 17.041c-.871-1.416-1.777-2.808-2.72-4.177 1.874.099 3.717-.089 5.562-.453-1.278 1.332-2.048 2.93-2.842 4.63m-8.258-1.726l-.368.346c-.424.134-.633-.016-.626-.452-.62-1.154-.51-2.623-1.035-3.816 1.64.455 3.3.84 4.972 1.148l-1.655 1.56c-.404.381-.822.92-1.288 1.214m-8.662-6.16c.947.38 1.903.74 2.87 1.073.719.247 1.443.481 2.17.704-1.475.972-2.92 1.99-4.332 3.056-.205-1.616-.441-3.227-.708-4.833m-6.704 2.314c.04-.375.045-.76.054-1.127.036-1.297-.04-2.589-.203-3.872.066-.098.102-.25.11-.408 1.573.801 3.162 1.565 4.777 2.271L9.132 11.47M2.7 3.323c.1-.133.142-.413.108-.657 1.698.956 3.405 1.897 5.13 2.8-1.833.243-3.414 1.312-5.118 2.041.298-1.394.25-2.804-.12-4.184m35.203 7.386c-3.155.832-6.312 1.343-9.56.825-3.396-.543-6.754-1.465-9.997-2.611C12.262 6.773 6.605 3.616.998.429.96.34.91.274.84.249L.36.065c-.43-.162-.467.948-.153 1.127.595.338 1.19.676 1.787 1.013-.154.206-.073.813-.026.934.626 1.622.617 3.254.047 4.889-.075.212-.057.995.323.858 2.05-.739 3.854-2.177 6.067-2.295.099.728.171 1.458.2 2.196.038.972.272 2.696-.522 3.388-.23.201-.123 1.295.22 1.068l6.227-4.12c.108-.072.164-.243.179-.433.16.068.32.136.48.202.34 1.999.635 4.004.881 6.018.014.116.148.564.353.408 1.738-1.323 3.524-2.574 5.358-3.755.01.11.035.207.08.269.642.9.71 2.481 1.02 3.537.13.442.254 1.622.808 1.792.482.147 1.518-1.234 1.834-1.532l2.942-2.772c.034-.032.06-.077.08-.131.307.041.612.073.917.098-.05.256-.046.567.051.706 1.07 1.539 2.093 3.107 3.07 4.71.113.187.295.236.405 0 .922-1.979 1.745-3.902 3.435-5.338.14-.12.177-.429.148-.698.443-.1.887-.21 1.332-.327.413-.11.335-1.257 0-1.169" mask="url(#9mtqcwdmzg)"/>
                            </g>
                        </g>
                    </g>
                </g>
            </g>
        </g>
    </g>
</svg>
