<svg xmlns="http://www.w3.org/2000/svg" width="40" height="40" viewBox="0 0 40 40">
    <g fill="none" fill-rule="evenodd">
        <g fill="#00B2A9">
            <g>
                <g>
                    <g>
                        <g>
                            <path d="M16.636 2.415c.08-.03.148-.013.203.037 4.389-.037 8.779.103 13.168.001.38-.009.397 1.045.04 1.129.032.105.048.223.032.343-.024.176-.082.344-.166.503.003.027.005.054.005.083 0 3.705.207 7.469 0 11.169-.01.194-.066.33-.138.414.11.257.035.66-.09.843-.843 1.25-2.096 2.268-3.223 3.262-.326.287-.717.523-1.017.84-.157.164-.308.51-.492.635-.387.259-.541.169-1.04.184-.401.013-.803.017-1.205.025-.02.032-.042.06-.07.08-.307.23-1.246.68-1.522 1.061.424-.547 2.417-.199 3.024-.203 2.069-.015 4.096.02 6.157.217 1.066.103 2.042.024 3.104-.053.858-.062.845-.45 1.443-1.01 1.115-1.045 2.636-1.717 3.977-2.506-3.23.042-6.46-.074-9.69-.043-.398.003-.398-1.134 0-1.138 3.523-.033 7.044.11 10.567.03.38-.008.397 1.044.04 1.13.046.272.008.61-.149.732.012.058.02.122.02.196 0 3.705.207 7.47 0 11.17-.01.193-.066.33-.137.414.11.256.034.659-.09.843-.844 1.25-2.097 2.268-3.224 3.261-.325.288-.717.524-1.017.84-.157.165-.308.512-.492.635-.387.26-.541.17-1.04.185-3.563.11-7.15.059-10.718.022-.742-.008-2.414.546-2.674-.49-.074-.294.054-.668.068-.965.045-1-.04-2.018-.045-3.02-.022-3.373.353-6.784.11-10.137-.015-.196.05-.393.14-.525.1-.255.287-.485.517-.694-1.152.011-2.305.01-3.458.003-.018.023-.038.043-.06.058-1.027.682-1.989 1.499-3.026 2.157-.91.578-2.181.348-3.279.35-1.7.005-3.4-.013-5.1-.026-1.642-.012-3.463.23-5.084-.032-.093-.015-.18-.034-.262-.057.059 1.864-.069 3.706-.111 5.588-.016.689-.013 1.38-.005 2.074l.027 2.08c.01 1.04.005 2.078-.058 3.11.387.107 1.109-.078 1.38-.087.457-.013.913.005 1.37.014l1.69.036c.564.01 1.128.014 1.691.002 2.171-.045 4.359.03 6.524-.062.304-.013.501-.032.653-.075-.012-3.6.093-7.199.096-10.8.001-.685.572-.68.572 0-.004 3.462-.098 6.923-.095 10.384.076-.08.163-.175.27-.286.347-.36.735-.684 1.103-1.022.965-.886 2.012-1.743 2.861-2.743.325-.383.52.71.288.982-.745.878-1.655 1.635-2.5 2.413-.393.36-.793.714-1.178 1.082-.287.276-.577.803-.88 1.005-.912.611-2.92.205-3.978.199-2.09-.014-4.174.071-6.265.035-.927-.016-1.838-.008-2.76.035-.403.019-1.005.142-1.297-.211-.199-.241-.119-.56-.115-.84.01-.792.027-1.592.017-2.389-.046-3.62.338-7.29.117-10.891-.084-.122-.14-.274-.156-.474-.068-.858.682-.94 1.273-1.313.875-.553 1.684-1.226 2.479-1.889.133-.11.263-.233.393-.357l.26-.25c.524-.5 1.07-.959 1.805-.876 1.073-.005 2.145.014 3.217.015.4 0 .396 1.138 0 1.137-1.135-.001-2.27-.025-3.404-.015l-.016-.002c-1.037.08-2.215 1.575-2.981 2.182-.436.344-.896.636-1.356.945-.06.04-.235.15-.427.263.527.05 1.145-.04 1.507-.042.923-.007 1.845-.016 2.769-.01 1.714.013 3.429.031 5.143.032.872 0 1.745 0 2.617-.02.563-.013.669-.1 1.075-.37.509-.34 1.007-.694 1.506-1.05-.889-.008-1.777-.018-2.664-.027-.742-.008-2.414.546-2.674-.489-.074-.295.054-.669.068-.966.045-1-.04-2.017-.045-3.02-.022-3.372.353-6.784.11-10.137-.02-.275.115-.552.257-.646.435-.8 1.62-1.514 2.23-2.03 1.003-.845 2.05-1.574 3.258-2.08.04-.036.086-.058.14-.059.033-.012.062-.026.092-.038zm22.408 18.112c-.999.614-2.037 1.163-3.016 1.807-.627.412-.977.84-1.475 1.364-.168.177-.217.276-.423.368 0 3.711.009 7.422.025 11.133.003.687-.568.68-.572 0-.015-3.68-.024-7.361-.024-11.042-.232-.001-.47-.022-.653-.008-.713.053-1.33.132-2.05.08-1.49-.106-2.958-.276-4.455-.287-1.5-.01-3.01.082-4.508-.002-.335-.02-.67-.004-.938-.095.059 1.863-.069 3.705-.11 5.587-.055 2.414.11 4.86-.037 7.268.548.174 1.878-.09 2.324-.084.917.011 1.833.04 2.75.049 2.016.02 4.027-.125 6.046-.056.508.018 1.794.201 2.294-.021.34-.151.772-.798 1.063-1.05 1.247-1.074 2.698-2.179 3.67-3.525.024-.095.059-.175.105-.226-.015-.068-.022-.147-.017-.242.204-3.65.007-7.362 0-11.018zM11.285 25.6c.283-.009.304.56.276.72-.198 1.114-.587 2.217-.877 3.312-.057.22-.198.343-.39.204-.199-.143-.155-.579-.103-.778.122-.46.266-.923.404-1.388-.41.385-.81.778-1.214 1.178-.383.38-.766.76-1.136 1.152-.18.191-.552.482-.77.762.184.338.297.741.324 1.204.104 1.808-1.072 3.583-2.972 3.761-2.008.19-3.033-1.621-2.552-3.378.035-.127.076-.2.12-.238-.002-.035-.002-.07 0-.11.084-1.465 1.274-2.225 2.665-2.369.774-.08 1.427.102 1.902.496.377-.733 1.275-1.411 1.81-1.944.388-.385.77-.767 1.16-1.143-.172.052-.341.102-.504.14-.525.123-1.068.283-1.605.337-.378.038-.408-1.097 0-1.138.537-.053 1.08-.213 1.605-.336.604-.141 1.242-.424 1.857-.444zm13.15 1.845c.332-1.809 2.095-3.193 3.963-2.696 1.716.455 2.212 2.301 1.502 3.777-.081.169-.163.192-.235.137.026.124.032.248.008.344-.266 1.081-1.276 1.562-2.313 1.632-.011.591-.011 1.186.002 1.78.67-.016 1.34-.021 2.004.02.408.026.384 1.162 0 1.138-.653-.041-1.31-.037-1.966-.021.012.297.025.594.041.889.037.69-.535.672-.57 0-.017-.29-.03-.581-.042-.873-.703.023-1.406.05-2.106.044-.4-.003-.394-1.14 0-1.137.687.006 1.378-.02 2.069-.043-.014-.601-.015-1.202-.003-1.8-.138-.01-.273-.025-.405-.048-1.582-.278-2.224-1.633-1.948-3.143zM6.726 31.11c-.52-.444-1.359-.413-1.996-.292-.549.104-1.722.481-1.762 1.182-.015.264-.112.425-.221.484.04.152.055.317.022.438-.463 1.692 1.968 1.888 2.987 1.412 1.112-.52 2.135-2.234.97-3.224zm22.771-3.39c.927-1.925-2.096-2.118-3.054-1.676-1.09.503-2.289 2.34-.792 3.17.933.516 3.214.503 3.53-.782.076-.306.194-.317.298-.2-.035-.193-.036-.398.018-.511zm-.145-22.597c-.758.687-1.92 1.193-2.603 1.585-1.33.763-2.638 1.334-4.187 1.404-1.813.082-3.65.024-5.466.035-.912.006-1.824.007-2.736-.007-.91-.014-2.043.114-2.924-.12-.063-.017-.121-.038-.176-.06.06 1.87-.068 3.718-.111 5.606-.054 2.414.11 4.86-.036 7.268.548.175 1.878-.089 2.324-.084.917.011 1.833.04 2.75.05 2.016.02 4.027-.126 6.046-.056.477.016 1.64.179 2.194.015-.003-.032-.006-.065-.006-.1-.013-3.832.063-7.663.065-11.494.001-.686.572-.68.572 0-.003 3.72-.073 7.441-.065 11.163.216-.237.43-.51.597-.655 1.247-1.075 2.698-2.18 3.67-3.525.023-.096.058-.176.105-.226-.015-.068-.023-.148-.017-.242.196-3.497.024-7.05.004-10.557zM18.625 17.892l.33.063.162.045c.193.068.317.208.42.38.13.22.106.58 0 .804-.036.072-.111.166-.203.166-.097 0-.16-.095-.202-.166.03.049-.01-.003-.028-.024l-.026-.014c-.038-.021-.094-.045-.127-.054l-.035-.008c-.007 0-.015.006-.022.004l-.269-.059c-.24-.053-.28-.363-.285-.569-.003-.127.023-.287.083-.402.029-.054.117-.185.202-.166zm-4.043-7.52c.501-2.384 4.447-1.319 5.752-.17.687.606.975 1.48.779 2.377-.131.6-.46 1.104-.93 1.498-.25.211-.528.31-.789.49-.601.415-.726.984-.843 1.653-.132.755-.644.23-.55-.302.106-.608.109-1.394.501-1.912.574-.755 2.64-.96 1.913-2.44-.344-.7-1.616-1.094-2.307-1.263-.613-.15-2.788-.52-2.976.372-.157.746-.662.23-.55-.303zm4.604-6.79L16.6 3.59c-1.058.435-1.995 1.034-2.887 1.755-.561.454-1.093.942-1.633 1.42-.056.05-.138.136-.227.23.808.123 1.864-.002 2.506.008.912.014 1.824.013 2.736.007 1.894-.012 3.82.065 5.71-.046 1.567-.092 2.905-.829 4.226-1.605.48-.281 2.42-1.157 2.497-1.736l.005-.025c-4.31.083-8.622-.05-12.933-.008z" transform="translate(-351 -288) translate(17 208) translate(286) translate(38 70) translate(10 10)"/>
                        </g>
                    </g>
                </g>
            </g>
        </g>
    </g>
</svg>
