<svg xmlns="http://www.w3.org/2000/svg" xmlns:xlink="http://www.w3.org/1999/xlink" width="40" height="40" viewBox="0 0 40 40">
    <defs>
        <path id="epbzbbekka" d="M0 0.177L34.945 0.177 34.945 28.521 0 28.521z"/>
        <path id="1qdhj1trhc" d="M0.054 0.145L31.714 0.145 31.714 32.87 0.054 32.87z"/>
    </defs>
    <g fill="none" fill-rule="evenodd">
        <g>
            <g>
                <g>
                    <g>
                        <g>
                            <g transform="translate(-65 -1061) translate(17 981) translate(38 70) translate(10 10) translate(2.4 1.6)">
                                <mask id="mpgs33la1b" fill="#fff">
                                    <use xlink:href="#epbzbbekka"/>
                                </mask>
                                <path fill="#00B2A9" d="M33.658.813C31.936-.2 29.073.27 27.184.393 24.59.564 22.01.61 19.413.63c-4.646.037-9.376.26-14.01-.122C3.879.383 1.154-.025.23 1.65c-.39.708-.373 2.749.738 2.706.41-.016.4-1.192 0-1.176-.252-.67-.118-1.093.402-1.27.395-.148.802-.244 1.22-.288.466-.062.941-.06 1.41-.044 1.14.038 2.272.184 3.414.21 2.244.049 4.489.052 6.732.048 4.82-.008 9.61-.136 14.423-.345 1.188-.052 2.426-.09 3.606.094 2.275.356 2.264 1.896 2.083 4.017-.189 2.214-.21 4.405-.214 6.626-.01 5.255-.092 10.51-.07 15.764.004.702.586.71.583 0-.024-5.344.067-10.688.068-16.032 0-2.457.187-4.867.302-7.316.062-1.337.027-3.066-1.27-3.83" mask="url(#mpgs33la1b)"/>
                            </g>
                            <g transform="translate(-65 -1061) translate(17 981) translate(38 70) translate(10 10) translate(2.4 1.6) translate(.8 4)">
                                <mask id="fj6ix97jkd" fill="#fff">
                                    <use xlink:href="#1qdhj1trhc"/>
                                </mask>
                                <path fill="#00B2A9" d="M31.414 25.095c-6.05.21-12.101.406-18.154.385-2.816-.01-5.637-.047-8.45-.19-.968-.048-2.013-.088-2.929-.44C.621 24.362.666 22.943.64 21.778c-.094-4.211.073-8.423.125-12.632.017-1.413.038-2.825.097-4.237.02-.496-.087-3.246.439-3.564.045.058.102.095.172.095 2.55 0 5.129.191 7.664.132 1.06-.025 2.076.053 3.129.115 1.29.076 2.55-.122 3.836-.13 2.54-.02 5.066-.04 7.602-.119 1.055-.032 2.109.029 3.163.043 1.142.017 2.263-.174 3.409-.173.4 0 .403-1.164 0-1.164-1.145 0-2.267.194-3.41.174C25.814.3 24.759.243 23.705.276c-2.535.078-5.061.099-7.602.118-1.285.009-2.546.211-3.836.13C11.216.46 10.194.384 9.137.41 6.627.47 4.076.281 1.551.278 1.503.183 1.435.13 1.352.152-.048.53.307 4.277.268 5.358.165 8.232.1 11.121.071 13.996c-.025 2.399-.015 4.8-.011 7.198.002 1.228-.124 3.083.68 4.113.825 1.06 2.728 1.075 3.922 1.14 2.578.14 5.166.174 7.748.192 1.345.009 2.69.005 4.036-.006-.083 1.694-.046 3.379-.069 5.073H6.39c-.4 0-.403 1.164 0 1.164h20.63c.4 0 .403-1.164 0-1.164H16.954c.022-1.695-.014-3.381.068-5.077 4.799-.047 9.596-.204 14.392-.37.405-.014.396-1.178 0-1.164" mask="url(#fj6ix97jkd)"/>
                            </g>
                            <path fill="#00B2A9" d="M27.184 15.48c.449.042 1.171.244.962.795-.232.613-1.121 1.01-1.825 1.16.102-.623.113-1.257.043-1.886.262-.051.52-.097.82-.069M8.898 17.366c-.317-.304-.377-.724-.07-1.046.293-.307.56-.45.95-.324.015.717.164 1.417.475 2.066-.19.11-1.229-.573-1.355-.696m2.435 2.504c-.281-.388-.512.68-.3.971 3.784 5.207 12.719 3.617 14.946-2.136l.033-.093c1.291-.145 2.656-.994 2.778-2.306.057-.616-.118-1.361-.713-1.704-.292-.168-.642-.227-.978-.253-.351-.026-.632.05-.937.111-.613-2.356-2.312-4.519-4.525-5.642-2.793-1.416-6.322-.925-8.742.943-1.517 1.17-2.723 3.127-3.039 5.108-.26-.106-.433-.14-.747.034-.251.14-.504.342-.683.56-.439.536-.511 1.294-.341 1.935.173.655.564 1.039 1.159 1.372.377.21.928.64 1.323.257.056-.055.09-.15.108-.259.018.025.035.052.054.077.292.386.518-.683.3-.972-1.392-1.844-.268-4.666 1.145-6.209.984-1.073 2.313-1.861 3.754-2.257.389-.107.777-.182 1.163-.228-.465.344-.834.783-1.028 1.38-.35 1.076-.053 1.989 1.104 2.36.857.274 1.99.543 2.191-.59.177-.997-.572-1.21-1.438-1.217-.266-.002-.361.466-.284.799-.21-.042-.419-.098-.628-.185-1.543-.644 1.056-1.968 1.719-2.21.11-.04.179-.172.208-.331 2.903.36 5.421 2.359 6.475 5.123.061.162.112.323.158.484-.093.297-.029.734.168.826.424 3.433-2.659 6.33-6.167 7.088-3.141.678-6.383-.288-8.236-2.836" transform="translate(-65 -1061) translate(17 981) translate(38 70) translate(10 10) translate(2.4 1.6)"/>
                            <path fill="#00B2A9" d="M21.564 19.485c.144-.362-.175-1.538-.43-.897-1.087 2.722-4.567 1.816-6.384.475-.337-.249-.504.97-.162 1.223 2.11 1.559 5.774 2.211 6.976-.801" transform="translate(-65 -1061) translate(17 981) translate(38 70) translate(10 10) translate(2.4 1.6)"/>
                        </g>
                    </g>
                </g>
            </g>
        </g>
    </g>
</svg>
