<svg xmlns="http://www.w3.org/2000/svg" width="40" height="40" viewBox="0 0 40 40">
    <defs>
        <filter id="ubidtwlfya">
            <feColorMatrix in="SourceGraphic" values="0 0 0 0 0.000000 0 0 0 0 0.698039 0 0 0 0 0.662745 0 0 0 1.000000 0"/>
        </filter>
    </defs>
    <g fill="none" fill-rule="evenodd">
        <g>
            <g>
                <g>
                    <g>
                        <g fill="#1E647D" stroke="#1E647D" stroke-width=".25" filter="url(#ubidtwlfya)" transform="translate(-351 -101) translate(17 21) translate(286) translate(38 70) translate(10 10)">
                            <path fill-rule="nonzero" d="M39.75 30.43c.11-4.81.39-9.72.07-14.52C39.61 12.65 39 7 35.53 5.4c-.266-.117-.545-.204-.83-.26.31-1.58.8-4-.92-4.78-.31-.157-.674-.16-.985-.006-.311.154-.532.445-.595.786-.146.471-.236.958-.27 1.45 0 .48.19 1.35-.1 1.77-.092.15-.153.316-.18.49-1-.09-2-.17-3-.2h-.07c.2-1.65.55-4.27-1.42-4.51-.79-.076-1.524.419-1.75 1.18-.16.497-.23 1.018-.21 1.54.06.578.06 1.162 0 1.74H22c.025-.146.025-.294 0-.44.194-.868.152-1.773-.12-2.62-.214-.759-.867-1.312-1.65-1.4-.665.035-1.231.496-1.4 1.14-.27 1 .64 2.15.2 3.05-.034.077-.06.158-.08.24l-3.81-.06h0c.026-.969-.021-1.938-.14-2.9C14.82 1 14.46.38 13.75.42c-1.91.11-1.29 2.8-1.46 4v.09H8.61c.051-.2.051-.41 0-.61-.037-.149-.126-.28-.25-.37v-.21c0-.27-.06-.55-.1-.83C8.13 2 8.05 1.49 8 1 7.78.33 7.4.08 6.67.36c-.653.279-1.13.856-1.28 1.55-.067.857-.013 1.718.16 2.56H4.38c-2.1.06-2.85 1.06-3.33 3C.593 9.952.408 12.477.5 15c-.08 2.86-.14 5.69-.14 8.53.172 2.738.099 5.485-.22 8.21-.12.68.52 1.33.69.39.63-3.47.23-7.05.26-10.56 0-1.95.06-3.91.11-5.87-.064-2.34.06-4.68.37-7 .36-1.9.92-2.7 2.81-2.78h9.78c4.39 0 8.78 0 13.18.08 2 0 4 .16 5.95.35 2.9.27 4.13 2 5 4.64 1.32 4.08.92 8.5.87 12.71 0 2 0 4-.07 6 0 1.12 0 2.25-.1 3.38s.14 2.57-.53 3.5c-1 1.43-3.35 1.59-4.93 1.56h-6.38c-4.63 0-9.27.08-13.91 0-2.365.027-4.729-.087-7.08-.34-1.05-.16-4.8-1.48-4.62-3.06.08-.67-.58-1.34-.69-.38-.35 3.06 3.42 4.72 6 4.92 5 .4 10 .39 15 .37 2.49 0 5 0 7.45-.06 2.18 0 4.66.36 6.79-.16 1.475-.233 2.732-1.196 3.34-2.56.51-1.95.27-4.39.32-6.44zM6.26 4.46c-.166-.653-.217-1.33-.15-2 .125-.364.427-.639.8-.73.49-.14.42.05.5.51.051.742.169 1.478.35 2.2l-1.5.02zm6.74 0c.03-.406.03-.814 0-1.22 0-.53-.06-1.17.56-1.36.62-.19.73.27.76.78l.1 1.79h0L13 4.46zm6.76.1c.032-.333.032-.667 0-1 0-.25 0-.49-.08-.74s-.28-.78-.22-.91c.22-.48 1.09-.33 1.4-.11.517.451.714 1.168.5 1.82-.146.313-.17.67-.07 1h0-1.53v-.06zm6.15 0c0-1.15-.33-2.72.74-3 .317-.115.67-.063.94.138.27.202.42.526.4.862 0 .67-.11 1.34-.19 2h-1.89zm6.68.32h-.08c.114-.754.161-1.517.14-2.28.05-.48.36-1.13.94-.89.406.208.672.615.7 1.07.025.75-.073 1.5-.29 2.22-.5 0-1 0-1.41-.07v-.05z"/>
                            <path d="M12.55 18.16h-.35c-.23 0-.36.3-.37.65-.502.489-1.033.946-1.59 1.37l-.52-.52c-.63-.63-1.32-1.59-2.2-1.86-.54-.16-.63 1.25-.19 1.39.793.372 1.48.935 2 1.64-.74.504-1.52.949-2.33 1.33-.43.2-.3 1.62.19 1.39 1.054-.49 2.058-1.08 3-1.76l1.54 1.54c.46.46.69-.92.36-1.24l-1-1c.61-.5 1.188-1.037 1.73-1.61.24-.26.28-1.48-.27-1.32zM22.69 17.63L20.14 20l-.24-.32c-.39-.52-1.13-1.65-1.91-1.24-.43.23-.28 1.63.19 1.38.47-.25.84.36 1.23.88-.614.745-1.464 1.256-2.41 1.45-.52.05-.48 1.49 0 1.44 1.07-.205 2.039-.765 2.75-1.59l.32-.31c.422.632.897 1.228 1.42 1.78.46.46.68-.92.36-1.24-.363-.389-.697-.803-1-1.24l2.23-2.1c.3-.33.09-1.71-.39-1.26zM32.8 17.7c-.863.58-1.685 1.218-2.46 1.91-.27-.31-.53-.62-.81-.92-.28-.3-1-1.1-1.53-.84-.53.26-.3 1.62.19 1.39.33-.16 1 .69 1.37 1.12-.7.74-1.43 1.57-2.49 1.55-.5 0-.51 1.43 0 1.44.974-.082 1.867-.573 2.46-1.35.25-.26.52-.49.79-.74l1.59 1.84c.42.47.66-.9.36-1.24-.3-.34-.76-.9-1.15-1.34.597-.514 1.225-.992 1.88-1.43.4-.27.22-1.66-.2-1.39zM12.5 28.65c.17-.23.25-1.6-.28-1.31l-.2.13h-.06c-.094.017-.175.076-.22.16-.608.429-1.17.918-1.68 1.46-.06-.09-.15-.09-.24-.22-.6-.59-1.39-1.54-2.29-1.61-.47 0-.51 1.39 0 1.43.704.193 1.323.615 1.76 1.2-.789.893-1.838 1.516-3 1.78-.52.09-.45 1.51 0 1.44 1.465-.381 2.766-1.227 3.71-2.41.631.67 1.213 1.385 1.74 2.14.2.28.43-.08.49-.26.114-.334.07-.702-.12-1-.41-.58-.86-1.13-1.32-1.67.401-.369.833-.703 1.29-1 .2-.01.26-.06.42-.26zM22.75 28.19c.06-.21.12-1-.21-1.06h-.09c-.19-.05-.3.08-.37.25-.07.17-.24.21-.36.29-.28.18-.55.38-.82.58-.27.2-.76.61-1.13.94-.788-.764-1.634-1.466-2.53-2.1-.39-.28-.59 1.1-.19 1.38.663.468 1.294.98 1.89 1.53-.528.765-1.35 1.275-2.27 1.41-.5 0-.5 1.44 0 1.43 1.38 0 2.06-1.11 3-2l.09-.08c.643.638 1.238 1.324 1.78 2.05.37.49.64-.87.37-1.24-.43-.57-.91-1.05-1.33-1.57.38-.31.76-.6 1.16-.88.4-.28.88-.42 1.01-.93z"/>
                            <path fill-rule="nonzero" d="M32.2 27.35c-.8-.65-2.32-.28-3.21-.06-.89.22-1.66.37-2 1.22-.69 1.74.87 3.32 2.31 4 .75.432 1.666.46 2.44.074.775-.386 1.304-1.135 1.41-1.994.109-.992-.143-1.99-.71-2.81-.034-.165-.118-.315-.24-.43h0zm-.47 3.84c-.923.462-2.033.32-2.81-.36-.375-.238-.712-.531-1-.87-.56-.67 0-.92.59-1.11.697-.229 1.419-.376 2.15-.44.06.15.15.25.26.22.495-.117 1.006.118 1.24.57.24.31.331.711.248 1.095-.083.384-.33.711-.678.895z"/>
                            <path d="M2.74 12.93c11.26-.127 22.517-.083 33.77.13.49 0 .46-1.25.09-1.41l-.45-.2c-.15-.06-.26 0-.33.16-11.033-.2-22.06-.237-33.08-.11-.5 0-.49 1.44 0 1.43zM9 9.66c.5 0 .5-1.44 0-1.43-1.92.035-3.84-.085-5.74-.36-.46-.06-.52 1.37 0 1.44 1.9.272 3.82.389 5.74.35h0zM34.86 10c.48.05.52-1.38 0-1.43L29.13 8c-.47 0-.52 1.39 0 1.44l5.73.56z"/>
                        </g>
                    </g>
                </g>
            </g>
        </g>
    </g>
</svg>
