<svg xmlns="http://www.w3.org/2000/svg" width="40" height="40" viewBox="0 0 40 40">
    <g fill="none" fill-rule="evenodd">
        <g fill="#00B2A9">
            <g>
                <g>
                    <g>
                        <path d="M32.934 6.401c3.523.057 5.978 2.876 6.224 6.406.273 3.553-.791 7.08-2.975 9.862-1.245 1.57-2.956 2.683-4.876 3.174-1.077.292-2.732 1.034-4.154 1.114.29.457.378 1.018.242 1.546-.296 1.373-1.576 1.24-2.595.766-.002.046-.008.09-.02.128-.988 3.648-2.986 7.143-4.887 10.428-.202.353-.391.115-.472-.214-1.808-3.13-3.625-6.235-4.987-9.579-.144-.356.2-1.496.453-.877 1.198 2.944 2.749 5.7 4.335 8.451-.337-4.146-.337-8.255.414-12.396.151-.82.726-.25.62.329-.764 4.208-.726 8.367-.34 12.594 1.702-2.96 3.43-6.111 4.31-9.353l-.042.142-.053-.035c-.98-.68-2.086-1.778-1.622-3.083l.066-.164c.271-.607.803-.784 1.407-.784-.383-1.13-.476-2.514-.604-3.305-.423-2.609-.604-5.32.019-7.913.485-1.99 1.422-4.126 3.112-5.332 1.64-1.175 4.406-1.943 6.425-1.905zM4.426 34.084c.71-1.043 2.22-.216 2.616.742.228.516.249 1.343-.203 1.767-.161.165-.392.238-.617.194-.224-.043-.413-.198-.503-.413-.141-.318-.141-.683 0-1 .045-.092.127-.16.224-.184-.225-.119-.48-.166-.73-.134.027.36-.032.767-.346.767l-.51.028c-.44 0-.482-1.251-.075-1.414.025-.126.074-.246.144-.353zm28.298.549c.562-.354 1.274-.354 1.558.348.267.622.082 1.453-.565 1.692-.513.187-1.255.236-1.555-.34-.232-.46-.273-1.39.273-1.645.068-.038.152-.02.202.043.021-.04.05-.073.087-.098zm-5.18-1.833l.139.008c.313.044.372.737.174 1.011.092.15.14.32.142.494.013.272-.098.536-.303.72-.147.123-.338.182-.53.164-.191-.018-.367-.112-.488-.26-.32-.455-.367-1.046-.123-1.545.12-.238.324-.423.575-.518.037-.04.09-.065.144-.066h.13c.093-.01.186-.01.279 0zm-15.998 0l.14.008c.31.044.372.74.177 1.002.09.153.137.327.136.504.012.272-.099.536-.303.72-.148.123-.34.181-.532.163-.192-.019-.369-.113-.49-.261-.317-.457-.362-1.046-.12-1.545.12-.237.327-.422.578-.517.037-.042.09-.066.145-.066h.13c.093-.01.186-.01.278 0zm-5.14-4.69c.453-.198 1.013-.123 1.364.183.27.223.281.985-.176 1.066l-.436.077c-.154.026-.26-.106-.313-.287-.069.008-.136.024-.2.046-.123.035-.232.097-.313.18-.004.012-.01.022-.017.032.016.038.036.074.06.11.478.558 1.328.575 2.074.438.425-.08.51 1.042 0 1.169-.708.165-1.47.06-2.071-.287-.511-.357-.797-.884-.777-1.433-.004-.501.218-1.057.805-1.295zm24.423.348c.154-.356.534-.538.89-.424.57.159.988.67 1.054 1.287.086.563-.02 1.396-.526 1.741-.172.14-.4.176-.605.097-.204-.08-.354-.265-.399-.489-.086-.27-.049-.569.1-.807.177-.177.334.018.384.212-.034-.12.022-.05.143-.05.07-.005.139-.03.198-.07.096-.056.16-.157.17-.272-.016-.2-.304-.374-.452-.436-.164-.05-.336-.067-.506-.05-.02.171-.073.342-.193.383-.127.051-.263.07-.397.056-.406-.047-.367-1.22 0-1.178.046.007.093.007.14 0zM5.903 6.575c1.23-.287 3.482-.3 4.515.568.312.253.125 1.436-.312 1.065-.203-.167-1.31-.37-1.529-.42-.653-.152-1.329-.184-1.994-.095-1.509.184-2.879.963-3.8 2.16-2.128 2.779-3.03 6.723-.995 9.789 1.438 2.16 3.912 5.142 6.68 5.451 1.435.151 3.158-.336 4.468-.874.698-.263 1.324-.686 1.825-1.234.34-.398.902-1.56.475-2.056-.26-.3-.044-1.479.312-1.068.614.72.514 2.18.218 2.991-.44 1.198-1.376 1.942-2.471 2.432.861.013 1.613.244 1.797 1.303.212 1.226-.74 1.982-1.894 2.17-1.154.188-2.705-.225-2.733-1.596-.036-.438.15-.866.496-1.142-2.025.441-3.772.321-5.529-1.037-1.567-1.242-2.929-2.719-4.034-4.377-2.156-3.248-1.62-7.36.262-10.603.967-1.67 2.302-2.973 4.243-3.427zm18.178 19.56c-.249-.02-.902 0-.967.317-.047.245.547.686.715.825.62.515 1.5 1.083 2.337 1.083.405-.013.707-.28.43-.75-.155-.164-.344-.291-.554-.37-.31-.137-.63-.243-.959-.318-.183-.05-.261-.368-.24-.667l-.252-.05c-.169-.03-.339-.054-.51-.07zm-10.702.275l-.156.01c-.02.075-.062.144-.118.198-.312.33-.993.247-1.417.355-.424.108-.743.065-.225.343.375.18.789.265 1.205.25.343 0 2.265-.33 1.45-.951-.266-.165-.583-.233-.895-.195zM37.017 9.458c-1.133-1.387-2.782-1.876-4.54-1.784-1.988.102-4.842.867-6.314 2.28-1.917 1.837-2.514 4.859-2.514 7.427.022 1.384.159 2.764.407 4.126.147.873.228 2.688.978 3.491.538.13 1.06.311 1.447.403.122.041.216.141.252.267.595-.027 1.184-.134 1.752-.317 1.154-.318 2.343-.581 3.475-.953 1.927-.628 3.355-2.002 4.553-3.608 2.228-2.987 2.987-8.317.504-11.332zm-24.98-4.291c1.435-3.87 5.983-5.736 10.01-5.015 3.172.57 4.971 3.795 5.15 6.72.045.753-.589.731-.63 0-.208-3.457-3.076-5.822-6.511-5.571-3.568.272-6.691 1.68-7.712 5.262-1.107 3.863-.234 8.054 2.836 10.79 1.93 1.716 5.015 2.1 7.505 1.815.412-.05.453 1.185 0 1.238-.382.043-.766.071-1.15.071.38.252.673.611.84 1.03.226.581.173 1.23-.144 1.768-.426.622-1.255.725-1.958.725-1.616.021-3.173-.929-3.091-2.672-.024-.534.247-1.039.709-1.321-.22-.065-.438-.137-.656-.214-1.967-.703-3.164-2.083-4.315-3.755-2.083-3.021-2.143-7.49-.882-10.871zm9.015 16.322c-.797-.365-1.9-.724-2.758-.365-.077.037-.17.02-.227-.043-.066.038-.123.09-.167.151-.12.195.133.688.268.852.147.153.321.278.514.371.446.21.936.317 1.43.31.379.006 1.07.021 1.384-.208.593-.412.02-.845-.444-1.068zM3.35 11.632c.137-.376.445-.678.593-.14.16.607-.04.876-.37 1.405-.454.736-.806 2.465-.172 3.333.047.032.087.07.12.113l.159.207c.182.236.037 1.37-.45.963-.73-.609-.82-1.504-.83-2.347v-.531c0-1.051.327-2.085.95-3.003zM30.088 9.6c.418.012.415 1.233-.003 1.245-.858.027-1.659.456-2.18 1.167-.343.446-.546 1.392-1.113 1.575-.456.15-.522-1.08-.158-1.198.32-.106.48-.707.653-.987.212-.353.47-.674.767-.952.43-.401.955-.672 1.521-.785.04-.042.095-.066.152-.065zM15.601 4.834c.208-.16.347.295.361.408.095.354.01.731-.229 1.01-.112.131-.209.09-.276-.032-.497.461-.87 1.04-1.084 1.68-.232.704-.144 1.39-.206 2.11-.065.786-.611.228-.564-.312.085-.998.026-1.867.423-2.821.335-.807.878-1.512 1.575-2.043z" transform="translate(-65 -288) translate(17 208) translate(38 70) translate(10 10)"/>
                    </g>
                </g>
            </g>
        </g>
    </g>
</svg>
