<svg xmlns="http://www.w3.org/2000/svg" xmlns:xlink="http://www.w3.org/1999/xlink" width="40" height="40" viewBox="0 0 40 40">
    <defs>
        <path id="7bmx3gf05a" d="M0 0.183L30.201 0.183 30.201 33.331 0 33.331z"/>
        <path id="6bebmx3p6c" d="M0.045 0.199L17.59 0.199 17.59 27.968 0.045 27.968z"/>
    </defs>
    <g fill="none" fill-rule="evenodd">
        <g>
            <g>
                <g>
                    <g>
                        <g>
                            <g transform="translate(-65 -870) translate(17 790) translate(38 70) translate(10 10) translate(0 3.2)">
                                <mask id="6ice2cnajb" fill="#fff">
                                    <use xlink:href="#7bmx3gf05a"/>
                                </mask>
                                <path fill="#00B2A9" d="M22.986 26.275c-2.162.04-4.333.007-6.48-.258-.983-.122-1.961-.288-2.923-.518-.356-.086-1.484-.26-1.833-.526-.461-.35-.443-.575-.466-1.12V5.211c0-1.186-.294-2.762.92-3.51 1.456-.896 4.009-.4 5.662-.361 1.9.043 3.8.09 5.701.134 1.445.034 2.878.045 4.32.016 1.337-.028 1.68.786 1.745 2.122.048 1.004-.014 2.025-.028 3.03-.053 3.945-.187 7.89-.244 11.835-.016 1.09.01 2.179.007 3.268-.002.939.124 2.068-.15 2.974-.43 1.416-2.389 1.61-4.125 1.6-.062-.07-.12-.061-.17-.002-.745-.01-1.438-.051-1.936-.042m2.548 1.001c1.395-.029 3.086.03 3.866-1.303.74-1.264.517-3.095.516-4.48-.002-2.374.028-4.743.083-7.115.053-2.323.106-4.646.142-6.97.017-1.098.03-2.197.036-3.296.005-.803.124-1.683-.22-2.439C29.383.413 28.505.387 27.263.441c-2.014.088-4.052-.05-6.068-.098C18.917.29 16.61.131 14.333.2c-1.458.045-2.827.388-3.369 1.845-.403 1.085-.228 2.409-.228 3.538v18.27c.053 1.232.075 1.904 1.34 2.31 1.986.637 4.083.946 6.16 1.093 2.202.156 4.412.118 6.617.042.441.723-1.693 1.179-2.095 1.32-1.78.626-3.536 1.303-5.34 1.864-1.67.519-3.359.987-5.042 1.464-.589.167-1.587.536-2.216.323-.938-.317-1.694-2.446-2.099-3.225-2.286-4.4-4.183-8.982-5.966-13.596-.413-1.067-.87-2.13-1.2-3.224-.274-.907-.583-1.902.314-2.592.428-.33 1.08-.531 1.57-.763.998-.47 2.007-.919 3.026-1.345.829-.348 2.688-1.472 3.549-1.255.317.08.397-.975 0-1.075-.736-.186-1.925.573-2.592.841-1.097.441-2.184.904-3.26 1.394C1.998 8.116-.006 8.504 0 10.391c.008 2.169 1.12 4.311 1.893 6.297.889 2.284 1.805 4.558 2.787 6.806.997 2.285 2.06 4.544 3.225 6.752.75 1.422 1.178 3.203 3.034 3.08 1.654-.111 3.368-.848 4.956-1.309 1.67-.484 3.322-1.019 4.958-1.606 1.523-.548 5.05-1.177 4.68-3.135" mask="url(#6ice2cnajb)"/>
                            </g>
                            <g transform="translate(-65 -870) translate(17 790) translate(38 70) translate(10 10) translate(0 3.2) translate(22.4 5.6)">
                                <mask id="p2iacy8wvd" fill="#fff">
                                    <use xlink:href="#6bebmx3p6c"/>
                                </mask>
                                <path fill="#00B2A9" d="M15.296 1.724C13.173 1.007 10.951.434 8.72.2c-.355-.037-.39 1.036 0 1.077 2.28.24 4.649.781 6.79 1.607.39.15.937.351 1.214.688.598.73.135 1.932-.052 2.7-.158.647-.351 1.284-.536 1.925-.689 2.394-1.176 4.85-1.807 7.259-.284 1.084-.35 2.208-.622 3.294-.39 1.555-.91 3.14-1.404 4.668-.335 1.036-.697 2.45-1.68 3.093-.918.599-2.277.3-3.288.168-2.377-.312-4.678-.892-6.936-1.69-.398-.14-.478.92-.144 1.039 1.84.65 3.714 1.178 5.64 1.51 1.544.268 3.854.929 5.187-.234 1.073-.934 1.473-2.614 1.866-3.911.421-1.39.912-2.797 1.252-4.204.53-2.2.858-4.435 1.449-6.628.341-1.268.59-2.558.955-3.82.386-1.34.871-2.74.977-4.137.12-1.596-.858-2.397-2.284-2.879" mask="url(#p2iacy8wvd)"/>
                            </g>
                            <path fill="#00B2A9" d="M6.483 12.89c-.416.546-1.264.575-1.865.342-.309-.12-.694-.363-.816-.682-.236-.618.355-1.008.845-1.1.248-.024.5-.064.75-.07.733-.016 1.64.782 1.086 1.51m-1.836-2.46c-1.189.225-1.691 1.466-1.334 2.546.376 1.135 1.848 1.79 2.947 1.207.946-.502 1.16-1.848.722-2.744-.497-1.016-1.324-1.105-2.335-1.01M26.184 10.09c-.566-1.55-2.433-2.426-4.034-1.969-1.028.294-1.71 1.172-1.952 2.161-.689-1.185-1.598-2.232-3.14-2.142-1.503.088-2.488 1.198-2.637 2.64-.165 1.616.66 3.18 1.588 4.453.8 1.1 2.466 3.001 3.856 3.303.322.07.276-.694.24-.829l-.016-.061c-.07-.266-.173-.301-.266-.223-.86-.216-1.92-1.346-2.507-1.936-.829-.834-1.585-1.836-2.012-2.935-.452-1.163-.53-2.405.742-3.053.544-.276 1.142-.31 1.726-.192 1.288.261 1.884 1.422 2.433 2.494.265.517.5-.307.465-.536-.245-1.634 1.68-2.318 2.956-2.087 2.139.388 2.703 2.348 1.472 4.08-1.29 1.816-3.09 3.473-4.831 4.849-.296.233-.137 1.287.148 1.062 1.807-1.43 3.608-3.093 4.964-4.96.855-1.178 1.322-2.705.805-4.12M35.424 10.155l.003.955.003.861.002.43c.024.21-.012.196-.11-.043-.608-.216-1.21-.463-1.81-.712.12-.093.237-.195.354-.3m2.1.625l-.01-2.584c0-.146-.077-.71-.339-.563-.6.34-1.159.733-1.682 1.2-.467.419-.917.93-1.57.837-.149-.021-.24.184-.267.428-.154.28-.132.91.107 1.005l2.108.842c.345.138 1.147.69 1.478.362.322-.318.177-1.135.175-1.527" transform="translate(-65 -870) translate(17 790) translate(38 70) translate(10 10) translate(0 3.2)"/>
                        </g>
                    </g>
                </g>
            </g>
        </g>
    </g>
</svg>
