<svg xmlns="http://www.w3.org/2000/svg" xmlns:xlink="http://www.w3.org/1999/xlink" width="40" height="40" viewBox="0 0 40 40">
    <defs>
        <path id="5fwoneaw8a" d="M0 0.142L10.345 0.142 10.345 1.509 0 1.509z"/>
        <path id="xep9f13vsc" d="M0.068 0.13L10.244 0.13 10.244 12 0.068 12z"/>
    </defs>
    <g fill="none" fill-rule="evenodd">
        <g>
            <g>
                <g>
                    <g>
                        <g>
                            <g>
                                <path fill="#00B2A9" d="M.309 1.48c5.427-.286 10.764-.38 16.184.12.393.035.426-1.207 0-1.246C11.073-.145 5.736-.052.309.236c-.419.022-.405 1.266 0 1.245M.302 6.055c3.537.644 7.028.165 10.588.286.406.014.42-1.238 0-1.253-3.56-.12-7.051.359-10.588-.285-.371-.068-.433 1.174 0 1.252M.318 11.199c3.253-.343 6.498-.263 9.76-.343.432-.01.427-1.266 0-1.256-3.262.08-6.507 0-9.76.343-.44.046-.407 1.299 0 1.256" transform="translate(-208 -101) translate(17 21) translate(143) translate(38 70) translate(10 10) translate(0 8)"/>
                                <g transform="translate(-208 -101) translate(17 21) translate(143) translate(38 70) translate(10 10) translate(0 8) translate(0 15.2)">
                                    <mask id="78zakxvglb" fill="#fff">
                                        <use xlink:href="#5fwoneaw8a"/>
                                    </mask>
                                    <path fill="#00B2A9" d="M.302 1.509c3.256.006 6.488-.232 9.741-.3.404-.009.4-1.076 0-1.067C6.79.21 3.558.449.302.442c-.4 0-.404 1.066 0 1.067" mask="url(#78zakxvglb)"/>
                                </g>
                                <path fill="#00B2A9" d="M.307 21.47c4.86.268 9.723.023 14.586.114.405.007.414-1.463 0-1.47-4.863-.092-9.726.154-14.586-.114-.4-.022-.418 1.447 0 1.47M.314 26.36c10.19.012 20.381.028 30.572.04.417 0 .42-1.559 0-1.56-10.19-.012-20.381-.028-30.572-.04-.417 0-.42 1.559 0 1.56M30.629 17.979c2.008-2.666 2.85-6.757 1.546-9.874-1.553-3.712-6.785-6.735-10.886-6.491-4.583.272-8.013 3.815-8.975 7.966-.965 4.166.285 7.936 3.863 10.515 3.562 2.568 9.752 3.632 12.777-.239.227-.29.007-1.405-.305-1.005-2.8 3.582-8.545 2.647-11.926.39-2.318-1.548-3.991-3.642-4.115-6.437-.113-2.528.734-5.126 2.476-7.043 1.559-1.714 3.833-2.842 6.205-2.983 2.405-.143 4.65.842 6.616 2.088 2.08 1.317 3.942 3.15 4.204 5.632.235 2.227-.42 4.663-1.786 6.476-.22.293.003 1.406.306 1.005" transform="translate(-208 -101) translate(17 21) translate(143) translate(38 70) translate(10 10) translate(0 8)"/>
                                <g transform="translate(-208 -101) translate(17 21) translate(143) translate(38 70) translate(10 10) translate(0 8) translate(29.6 16.8)">
                                    <mask id="seu9xj4aid" fill="#fff">
                                        <use xlink:href="#xep9f13vsc"/>
                                    </mask>
                                    <path fill="#00B2A9" d="M.172 4.408c1.77 2.1 3.673 3.896 5.674 5.763.884.826 3.133 2.975 4.138 1.051.965-1.849-.988-3.607-2.091-4.726C5.676 4.25 3.325 2.154.883.163.593-.075.42 1.039.73 1.29c1.854 1.513 3.66 3.082 5.384 4.745.758.732 1.504 1.478 2.234 2.239.257.267.609.548.802.873.44.738.347 1.66-.663 1.577-.954-.078-1.506-.77-2.163-1.39-.66-.625-1.344-1.22-2.018-1.828C2.895 6.234 1.687 4.85.464 3.397c-.329-.39-.53.728-.292 1.01" mask="url(#seu9xj4aid)"/>
                                </g>
                                <path fill="#00B2A9" d="M30.27 12.448C31.46 7.01 24.25 1.591 18.9 3.645c-1.455.558-3.298 1.925-4.188 3.204-1.458 2.096-1.224 4.832-.745 7.177.153.746.685.233.576-.303-.428-2.088-.71-4.532.79-6.309.823-.976 2.144-1.878 3.28-2.457 1.76-.899 4.099-.675 5.901-.018 2.681.978 5.805 4.353 5.18 7.207-.117.533.412 1.049.575.302M31.597 23.122l1.892-2.053c.243-.264.06-1.368-.287-.991l-1.89 2.053c-.244.264-.062 1.368.285.991" transform="translate(-208 -101) translate(17 21) translate(143) translate(38 70) translate(10 10) translate(0 8)"/>
                                <path fill="#00B2A9" d="M16.416 16.721l3.462-3.598c.259-.269.08-1.433-.294-1.044l-3.462 3.598c-.259.269-.08 1.433.294 1.044M18.06 17.53l2.605-2.144c.287-.236.089-1.258-.326-.917l-2.604 2.144c-.287.237-.089 1.26.326.918" transform="translate(-208 -101) translate(17 21) translate(143) translate(38 70) translate(10 10) translate(0 8)"/>
                            </g>
                        </g>
                    </g>
                </g>
            </g>
        </g>
    </g>
</svg>
