<svg xmlns="http://www.w3.org/2000/svg" xmlns:xlink="http://www.w3.org/1999/xlink" width="40" height="40" viewBox="0 0 40 40">
    <defs>
        <path id="02scv6h2ma" d="M0.128 0.267L23.175 0.267 23.175 24.38 0.128 24.38z"/>
    </defs>
    <g fill="none" fill-rule="evenodd">
        <g>
            <g>
                <g>
                    <g>
                        <g>
                            <g>
                                <path fill="#00B2A9" d="M8.325 1.419c.158-.197 2.14-.178 2.471-.202.729-.052 1.467-.001 2.197.022 1.717.053 3.446.172 5.165.162.589-.003.95-.196 1.299.622.184.432.05 1.08-.379 1.314-.571.313-2.06-.115-2.652-.17-1.044-.095-2.079-.188-3.127-.196l-3.27-.024c-.344-.003-.687-.01-1.03-.008-.506.004-.489.434-.525-.299.01-.158-.165-1.201-.149-1.221m5.895 31.804c-2.15-.184-4.348.01-6.508-.047-1.191-.032-2.37-.073-3.562-.056-.976.014-2.242.03-2.933-.792-.581-.693-.426-1.845-.456-2.703-.038-1.13-.047-2.235.015-3.366.123-2.274-.17-4.565-.13-6.847.03-1.793-.221-3.572-.084-5.366.105-1.367.215-2.72.252-4.092C.858 8.31.504 6.464.85 4.87c.403-1.855 1.717-1.773 3.254-1.815 1.245-.033 2.49-.032 3.735-.009.025 0 .048-.004.07-.012.053.615.206 1.004 1.008 1.08.861.08 1.765.013 2.63.02.871.006 1.749-.019 2.62.019.919.04 1.85.142 2.765.237.701.074 2.077.435 2.718-.043.393-.293.484-.942.474-1.546 2.76.08 6.482-.05 7.006 3.42.394 2.613.164 5.428-.023 8.052-.039.541.511 1.106.568.313.218-3.047.688-6.68-.174-9.66-.954-3.296-4.59-3.216-7.436-3.303-.02 0-.04.004-.058.009-.2-1.091-.666-1.413-1.849-1.408-1.902.008-3.815-.12-5.717-.18-1.24-.039-2.77-.152-3.94.244-.885.3-.78.912-.678 1.582-1.418-.026-2.835-.023-4.252.026-.9.03-1.848-.081-2.498.633C-.217 3.948.196 6.4.245 8.102c.045 1.55-.022 3.132-.157 4.677-.189 2.157-.013 4.242-.027 6.398-.02 2.874.07 5.727.046 8.6-.011 1.497-.252 3.86.531 5.217 1.04 1.802 3.792 1.249 5.471 1.304 2.687.09 5.439-.128 8.111.101.391.034.424-1.14 0-1.176" transform="translate(-351 -676) translate(17 596) translate(286) translate(38 70) translate(10 10) translate(2.4)"/>
                                <path fill="#00B2A9" d="M11.58 8.88l-3.324 3.514c-.507.536-.667.81-1.31.278-.572-.474-1.173-.908-1.796-1.318-.342-.224-.502.9-.16 1.125.85.56 1.64 1.166 2.392 1.847.101.092.203.106.303 0l4.199-4.44c.255-.27.06-1.391-.304-1.006M11.637 16.021c-1.229.603-2.136 1.543-2.942 2.652-.245.338-.803 1.527-1.22 1.537-.185.004-1.338-1.194-1.546-1.348-.314-.233-.475.901-.153 1.14.614.455 1.158.953 1.67 1.52.081.091.213.116.291 0 1.147-1.677 2.185-3.445 4.054-4.361.347-.17.239-1.332-.154-1.14M11.633 22.413c-1.766.594-3.637 2.345-4.067 4.246-.52-.476-1.061-.915-1.644-1.325-.308-.218-.464.847-.15 1.069.656.462 1.265.966 1.841 1.522.288.278.424-.29.424-.48.005-1.706 2.283-3.471 3.745-3.963.344-.116.271-1.211-.15-1.07M17.946 14.568c.423-.378.932-.525 1.476-.59.021.01.045.016.07.017.674.044 1.458.192 1.949.726.813.885.162 2.337-.928 2.467-.858.102-1.883-.07-2.556-.654-.625-.544-.62-1.421-.01-1.966m-1.092 1.525c.336 1.78 2.223 2.495 3.796 2.265 1.338-.195 1.878-1.948 1.723-3.168-.194-1.527-1.388-2.235-2.747-2.362-.037-.03-.079-.045-.127-.04-.121.013-.24.034-.358.058.014-.196-.025-.405-.085-.54-.564-1.279-.836-2.587-.824-3.97.105-.288.036-.679-.065-.95-.14-.377-.32-.106-.416.154l-.032.009c-.28.084-.293.872-.052 1.091.015 1.253.24 2.472.655 3.646-.143.174-.174.613-.067.884-1.005.54-1.654 1.59-1.401 2.923" transform="translate(-351 -676) translate(17 596) translate(286) translate(38 70) translate(10 10) translate(2.4)"/>
                                <g transform="translate(-351 -676) translate(17 596) translate(286) translate(38 70) translate(10 10) translate(2.4) translate(12.8 15.2)">
                                    <mask id="3vjxdeuzzb" fill="#fff">
                                        <use xlink:href="#02scv6h2ma"/>
                                    </mask>
                                    <path fill="#00B2A9" d="M23.155 17.101c-.374-3.041-1.504-6.173-2.544-9.09 2-.456 1.472-4.932-1.592-3.964-.591-1.152-1.777-1.75-2.983-2.304C14.284.938 12.414.473 10.49.268c-.393-.042-.435 1.114 0 1.16 1.524.163 3.01.485 4.436 1.034 1.233.475 3.225 1.192 3.72 2.5.056.144.15.34.341.267.365-.138 1.421-.188 1.708.237l.058 1.312c-.444.178-.876.152-1.293-.08-.403-.179-.393.675-.34.853.203.69-.51 1.704-1.09 2.006-.438.228-.95.353-1.447.387-.301.021-1.922-.144-2.35-.275-.054-.158-.117-.315-.195-.467-.24-.472-.52.165-.514.41.005.23.067.427.166.598.61 1.554-1.133 2.741-2.485 2.79-1.226.044-2.292-.54-3.115-1.373-.394-.399-.457.62-.412.794.44 1.707-2.54 4.297-3.521 2.13-.106-.234-.308-.186-.426 0-.292.454.24.84-1.114.8-.367-.098-.716-.235-1.048-.412-.87-.34-.819-.84.154-1.502.354-.002.322-.677.26-.873C1.073 9.67 1.897 6.7 4.038 4.52c.26-.266.068-1.382-.304-1.003C1.404 5.89.542 9.2 1.25 12.345c-1.243.35-1.43 2.045-.676 3.028.494.643 1.602 1.251 2.45 1.141.62-.08.76-.393.933-.765.776 1.04 2.282.766 3.203-.042.794-.697 1.16-1.617 1.188-2.583 1.39 1.062 3.383 1.542 4.849.308.801-.674 1.214-1.634 1.221-2.61.936.425 2.373.354 3.156.112 1.256-.388 2.012-1.398 2.172-2.542l.24-.076c.852 2.435 1.6 4.903 2.21 7.405.293 1.205.391 2.205-.754 3.032-.523.378-1.08.71-1.645 1.025-1.044.579-2.134 1.081-3.21 1.602-1.156.56-2.339 1.31-3.565 1.715-1.691.559-2.517-1.017-3.477-2.05-1.3-1.401-2.802-2.557-4.342-3.701-.313-.233-.488.875-.16 1.119 1.113.828 2.233 1.652 3.236 2.605.931.886 1.666 2.05 2.68 2.84.996.772 1.878.476 2.947-.032 1.59-.755 3.177-1.52 4.752-2.305 1.838-.915 4.789-2.095 4.497-4.47" mask="url(#3vjxdeuzzb)"/>
                                </g>
                                <path fill="#00B2A9" d="M21.991 33.076c.488-.142 1.817 1.508 2.113 1.797L26 36.722c.381.371.51-.689.302-.935l-.355-.422c-.055-.066-.107-.085-.154-.075l-2.055-2.005c-.451-.44-1.123-1.48-1.905-1.253-.363.106-.292 1.176.16 1.044M27.951 32.779c.402.748.803 1.497 1.203 2.246.312.581.499-.45.433-.703-.062-.236-.106-.357-.213-.574-.056-.112-.111-.16-.163-.164l-1.19-2.225c-.34-.633-.627-1.4-1.277-1.737-.366-.191-.479.945-.146 1.118.666.347 1.002 1.382 1.353 2.039M32.326 33.42c.257.615.584-.512.438-.863-.334-.8-.332-1.901-.47-2.748l-.486-3.004c-.132-.809-.69-.25-.598.324l.6 3.698c.14.867.175 1.777.516 2.593" transform="translate(-351 -676) translate(17 596) translate(286) translate(38 70) translate(10 10) translate(2.4)"/>
                            </g>
                        </g>
                    </g>
                </g>
            </g>
        </g>
    </g>
</svg>
